<?xml version="1.0" standalone="no"?><!DOCTYPE svg PUBLIC "-//W3C//DTD SVG 1.1//EN" "http://www.w3.org/Graphics/SVG/1.1/DTD/svg11.dtd"><svg t="1745222982176" class="icon" viewBox="0 0 1024 1024" version="1.1" xmlns="http://www.w3.org/2000/svg" p-id="31869" xmlns:xlink="http://www.w3.org/1999/xlink" width="200" height="200"><path d="M480.690268 1023.727782c-2.2237-0.227176-10.284067-0.991709-17.911926-1.703817-45.906958-4.259544-97.523889-17.400782-141.600335-36.042292-37.99076-16.077047-81.927406-41.498876-98.253472-56.855077-3.49501-3.289678-12.595143-10.969963-20.227371-17.068756C101.822434 831.401744 35.779849 705.306148 25.1856 573.137972L23.805071 555.890097l0.629102-32.459907 0.629101-32.455537 1.83925-14.058679c20.568135-157.367199 109.415661-291.265406 243.414348-366.818787l13.294145-7.496796 13.294144-13.324726C341.615078 44.474004 394.267406 14.150422 447.749798 2.402819l6.933226-1.529066h86.693726l12.975225 3.744029 12.979594 3.739661 11.419946 5.884723c12.407286 6.3915 25.081066 15.399888 34.482643 24.508759l5.972099 5.779873 2.699895-0.611627c1.485379-0.332026 6.810901-1.703817 11.839347-3.040659l9.14382-2.433401h18.174053l6.867695 2.796008 6.876432 2.79164 11.328202 9.628753c14.40381 12.245642 15.382413 12.9228 33.32929 22.936003 21.232186 11.852453 31.324028 19.445363 46.623435 35.068058 7.370103 7.531747 16.784786 16.085784 20.917635 19.004118 105.929388 74.941754 175.493196 177.874171 201.705772 298.473864 38.462586 176.956731-21.638481 356.761895-159.119073 476.033484-6.775951 5.880355-12.582036 11.380627-12.909694 12.223798-0.323288 0.843171-5.443478 5.176984-11.376258 9.628753-70.590467 52.966878-153.308619 85.326303-241.968288 94.662349l-18.492972 1.948468-30.057087 0.24902c-16.527029 0.1398-31.870124 0.065531-34.093824-0.161645z m84.49187-502.988749c1.581492-12.743681-0.991709-23.897132-4.285756-18.567242-1.170828 1.891674-1.345579 13.669858-0.24902 16.832843 0.830065 2.402819 4.285756 3.722186 4.534776 1.734399z m105.278442-36.876726c3.77898-3.42511 1.935362-8.492875-3.088715-8.492875-4.866802 0-6.876432 5.098346-3.385791 8.588988 2.315444 2.315444 3.831405 2.289232 6.474506-0.096113z m-271.488017-21.599163c0.323288-0.851909 0.179119-2.219331-0.327657-3.040658l-0.91744-1.48538-1.284416 0.795115c-0.70774 0.436876-1.288785 1.804299-1.288785 3.03629v2.245544h1.612073c0.886859 0 1.878568-0.699002 2.206225-1.550911z m144.099267-177.537776c0.655314-1.231991 1.197041-3.311522 1.197041-4.62652v-2.385344H539.642352v9.244302h1.118403c0.611627 0 1.651392-1.004815 2.311075-2.232438z m33.560835-4.700789v-2.315444H558.139693V282.340024H576.628296z m-12.918431-12.625724l1.66013-0.926177-1.258204-0.773271c-1.529067-0.948021-0.463089-4.172168 1.380529-4.172169 0.733952 0 2.000893-1.070347 2.822221-2.380975l1.485379-2.385345 3.128034 0.362608 3.123665 0.358238 0.362608 3.180459 0.366976 3.18046H581.259185v-2.184382c0-1.197041 0.77764-3.669761 1.73003-5.487166 2.197488-4.215856 2.197488-6.203643 0.004368-6.203643h-1.734398v-2.743583c0-1.511592 0.782009-3.398897 1.734398-4.189643 3.07124-2.546989-1.188303-6.946333-4.62215-4.775057-0.637839 0.401926-2.71737 0.856277-4.62652 1.004815-1.904781 0.157275-6.194905 0.59852-9.53264 0.982972l-6.07258 0.699002V245.345342h5.01097c5.779873 0 6.518194 0.45872 5.709973 3.538697-0.694633 2.656208-3.254728 2.970759-4.202749 0.506777-0.362607-0.95239-1.188303-1.734399-1.826143-1.734399h-1.162091l0.668421 3.363947 0.672789 3.363947-2.359132 1.258204c-1.297523 0.699002-4.054212 1.266941-6.133743 1.266941h-3.77461l1.389266 1.384898c1.83488 1.83488 1.769349 5.469691-0.10485 6.190537-0.816959 0.314551-1.572755 1.66013-1.673236 2.996971l-0.17912 2.420294 5.941518-0.786377c3.276572-0.436876 6.692944-1.205778 7.601647-1.716924z m-19.445363-3.556172v-4.62652h-9.24867v9.24867h9.24867z m9.244302-11.559746v-2.315445h-4.622151V254.598381h4.622151z m39.301389-18.497341v-2.311076H585.881335V236.10104H592.814562z" fill="#CAE3FD" p-id="31870"></path><path d="M474.333719 0l-15.600852 2.005262-15.60522 2.000893-14.670305 4.499826c-19.117705 5.858511-37.767953 13.827134-56.094912 23.958294-31.891967 17.641064-70.489985 49.519925-89.096546 73.596176-2.948915 3.81393-8.588987 10.742787-12.538348 15.395519-17.571163 20.707935-47.007886 70.765217-56.536158 96.147729-0.834434 2.228069-3.162984 7.951148-5.172615 12.713099-17.946877 42.586698-37.42719 112.368944-41.62557 149.114607-5.880355 51.516449-7.715235 119.677884-4.014893 149.110238 0.28397 2.228069 0.816959 9.506428 1.188303 16.181896 0.371345 6.675469 1.406742 22.018564 2.297969 34.102562 0.891228 12.079629 2.175644 35.48309 2.857171 52.014488 1.909149 46.396259 3.473166 69.760402 4.871171 72.827273l1.280047 2.809114 8.213274 3.363948c4.512932 1.852355 14.709624 4.775058 22.656403 6.500719 7.951148 1.725661 18.654617 4.102268 23.787913 5.273096 5.133296 1.179566 17.094968 3.49501 26.58392 5.15514 9.488952 1.66013 25.054854 4.526038 34.587494 6.365287 9.537009 1.839249 20.721041 3.503748 24.853891 3.695973l7.514272 0.349501 0.576676-8.090948 0.576677-8.090948 19.650694 0.340763c10.808319 0.187857 24.071882 0.834434 29.476042 1.441692 5.404159 0.611627 17.627957 1.389267 27.164966 1.73003 9.537009 0.345132 20.589978 0.908703 24.561184 1.249466l7.225933 0.624733-0.021844 8.287543c-0.10485 37.807272-12.713099 74.618466-32.232731 94.116253l-7.234671 7.225934-3.084346 0.629102c-8.449187 1.721292-12.070891 3.245991-17.169237 7.217195-11.437421 8.907907-21.913713 14.665936-74.059265 40.734343-51.669356 25.823756-73.045711 37.903385-74.697103 42.202248l-0.786378 2.04458 2.634364 2.817852c1.44606 1.546542 7.575434 6.090055 13.613065 10.091842 74.151008 49.131105 155.790076 76.278596 245.052634 81.503636 19.371094 1.135878 53.001828 0.463089 62.766013-1.245097 3.687236-0.646577 11.489846-1.34121 17.339619-1.537805 19.755545-0.664052 67.086719-10.201061 93.002219-18.741992 58.340456-19.222556 114.920301-48.755391 151.989253-79.336729l5.491534-4.526038v-2.149432c0-1.179566-4.207118-8.414237-9.349152-16.077046l-9.357889-13.927615-8.270068-7.606016c-13.853346-12.726206-23.045223-16.059571-55.526973-20.139996-29.493517-3.713448-43.25075-5.723079-55.04641-8.060367a1929.621299 1929.621299 0 0 0-21.966138-4.185275l-10.978701-2.018368-9.24867-4.316338c-5.08524-2.372238-12.319911-5.115821-16.077047-6.094423l-6.824007-1.778087-5.01534-4.919227-5.01097-4.923595-4.718264-9.056445-4.709526-9.060814-2.804746-11.223351c-4.211487-16.863424-6.671101-49.096155-3.949361-51.813525l1.175197-1.170828 7.208458 0.891227c3.962468 0.489301 20.987536 1.957206 37.833485 3.254728 16.850318 1.297523 37.693684 2.927071 46.32199 3.612967l15.692596 1.253835 31.123065-1.280047c41.223644-1.699449 38.117454-0.480564 36.33063-14.242167-0.59852-4.604676-1.109666-20.707935-1.127141-35.780166l-0.03495-27.413985 2.948915-18.829367c1.616442-10.349599 4.364394-24.281583 6.098793-30.957053l3.145509-12.136422 16.155684-2.027106 16.155684-2.022737 11.559746-3.56491c12.966488-4.001787 18.46676-6.828376 29.746905-15.29067l7.780766-5.841035 4.587201-6.535669c8.471031-12.070891 12.739312-26.002875 12.769893-41.634308l0.017475-9.869035-1.769349-6.793426c-0.974234-3.739661-3.442585-9.95641-5.487165-13.818396l-3.722186-7.020602-7.986098-8.431712-7.990467-8.427343-8.772476-5.723079c-13.350939-8.706944-13.975672-9.200614-13.975671-11.070445 0-0.961128 2.079531-5.19009 4.622151-9.405946 6.400237-10.616093 11.568483-24.500021 13.442682-36.134035l1.581492-9.829716 0.733952-26.583921 0.729584-26.583921-1.367423-12.713099c-0.751427-6.994389-2.433401-18.698304-3.730923-26.011613-2.097006-11.813134-3.888199-19.200712-12.503399-51.603824-1.205778-4.543513-3.031921-15.727546-4.054212-24.853891l-1.865461-16.592561-4.477982-16.758573c-6.011417-22.486021-10.074367-32.652132-20.000195-50.079126l-8.361812-14.679043-7.514272-8.942857c-21.900607-26.081513-42.525536-42.33331-73.976258-58.2924l-9.820978-4.980389-10.703469-10.183586-10.707837-10.179217-6.378393-2.826589-6.382763-2.817852h-23.224342l-8.606462 2.887752c-10.454449 3.508116-11.096657 3.52996-13.870822 0.436876-1.210147-1.354316-7.405053-6.614307-13.761602-11.695178l-11.559746-9.239933-13.289776-6.662363-13.294145-6.662363-13.870821-3.717817-13.870821-3.722185-31.210441-0.611627-31.21044-0.611627z m-5.303678 449.938865h1.162091c1.791193 0 4.713895 11.218982 4.805639 18.418703 0.043688 3.538698 0.45872 7.405053 0.926177 8.593357l0.84754 2.153799-2.503301 5.190091c-1.371791 2.852802-3.224147 5.64881-4.106637 6.203642-4.76632 3.023184-5.137665 1.734399-2.105743-7.273989l2.394082-7.09924 0.179119-8.759369c0.100482-4.814376-0.218438-10.703468-0.707739-13.088813l-0.891228-4.333812z m-72.766111 6.098793c1.817405-0.45872 3.861986 0.332026 4.744477 2.730476l0.908702 2.463982-1.712555 2.446508c-2.844064 4.062949-7.361365 2.315444-7.361365-2.848434 0-2.616889 1.598967-4.329444 3.420741-4.792532z m334.682169 15.491632l1.485379 1.804299c3.180459 3.844511 4.346919 13.473264 2.429033 19.969614-0.84754 2.865908-2.761058 6.640519-4.255175 8.379287l-2.708633 3.162984 0.834434-4.045474c0.463089-2.2237 1.148985-9.720497 1.529066-16.658092l0.685896-12.612618z m-66.41393 2.686789h2.782902c5.264359 0 8.152111 5.487166 4.967283 9.440896-3.123665 3.879461-9.274883 3.114928-10.685993-1.332472l-0.773271-2.446508 1.856724-2.830958 1.852355-2.830958z m-102.438746 26.697509c2.678052-1.262572 4.473613 8.676363 3.088715 19.825445-0.249019 1.987787-3.700342 0.668421-4.534776-1.734399-1.092191-3.162984-0.921809-14.941168 0.24902-16.837211 0.410664-0.664052 0.81259-1.074716 1.197041-1.253835z m-10.965594 491.145034c0.511145 0-1.415479 2.341657-4.277019 5.198828-6.736632 6.74537-7.549222 6.832745-4.263912 0.471826 1.55528-3.00134 5.574541-5.670654 8.540931-5.670654z" fill="#EEC5B9" p-id="31871"></path><path d="M478.960238 1022.508898c-89.799916-7.156033-169.813804-34.666132-240.749403-82.766209-11.896141-8.069105-14.294591-10.489399-13.263563-13.390257 1.336841-3.74403 24.757778-16.863424 75.103399-42.071185 51.918375-25.994138 62.700482-31.905074 72.914648-39.996022 5.841036-4.62652 11.730128-7.116714 16.828474-7.116714h3.958099l5.832298-5.242515c19.80797-17.811445 31.717217-49.554875 34.382162-91.630428l0.799484-12.612618-1.45043-0.891227c-0.795115-0.49367-11.68644-1.314998-24.198576-1.826143-12.512136-0.511145-28.182888-1.485379-34.827776-2.171275-6.640519-0.681527-20.402122-1.363054-30.572601-1.515961l-18.492972-0.2796-0.576677 8.090948-0.581045 8.095317-7.514272-0.340763c-4.128481-0.183488-15.312513-1.900412-24.849522-3.818299a1374.076334 1374.076334 0 0 0-30.052718-5.670654c-6.99002-1.205778-25.788806-5.059027-41.76974-8.562775l-29.052271-6.378393-6.299756-2.778533-6.291018-2.782902-1.917887-6.824007c-2.64747-9.449634-2.957652-12.940275-4.303231-48.384047-1.620811-42.726499-2.883383-65.911522-5.718711-105.186698l-2.420294-33.521516-0.021844-26.58392c-0.030581-37.824747 3.927518-87.532528 8.243855-103.565888 0.615996-2.297969 1.668867-10.878219 2.332919-19.052174 0.664052-8.182692 1.935362-18.00804 2.822221-21.839444 0.891228-3.831405 3.254728-14.246535 5.251253-23.150073 9.087026-40.485323 21.162286-76.134427 39.353814-116.165399C267.78299 101.512569 354.162165 25.03301 445.438723 4.613413l10.402024-2.32855 38.257254-0.524252 38.257255-0.515514 15.225137 3.678499 15.229507 3.682866 12.402917 6.116268c13.355307 6.588094 21.861288 12.420392 35.670947 24.465071l8.785582 7.66281 9.978254-3.337735 9.982622-3.337735 11.559746 0.091744 11.555378 0.096113 6.937595 3.56491 6.933226 3.564911 8.130267 8.475399 8.130267 8.479769 15.565902 8.187061c68.589574 36.064136 106.772559 90.975113 112.054393 161.150548l1.087822 14.451866 4.600307 14.447498a430.205164 430.205164 0 0 1 14.15916 57.79873l2.664945 15.600852v31.787117l0.008737 31.787117-1.546542 10.878219c-1.935362 13.661121-8.947226 32.621551-15.77997 42.678442-1.572755 2.306707-2.852802 5.32989-2.852802 6.710419v2.516408l9.820978 6.6012c9.021495 6.063843 23.696169 19.995827 23.696169 22.49039 0 0.581045-3.39016-0.532989-7.536116-2.472719l-7.536115-3.525592-2.699896 0.677158-2.704264 0.677159-1.987787 5.513378c-1.092191 3.027553-2.43777 6.548775-2.988233 7.820085-0.546095 1.27131-1.310629 3.936255-1.703818 5.924042-0.384451 1.983418-1.974681 4.805639-3.534329 6.269175-1.55528 1.463535-2.826589 3.695973-2.826589 4.967283 0 1.266941-0.681527 3.128034-1.511592 4.132849-2.315444 2.804746-9.537009 20.463284-12.328648 30.144463-1.371791 4.76632-3.272203 10.100579-4.220225 11.848084-0.948021 1.747505-1.424217 3.669761-1.061609 4.259543 0.366976 0.594152-0.192226 3.228516-1.240729 5.854142l-1.913518 4.770689 1.205778 2.529514c0.664052 1.389267 1.529067 3.508116 1.922256 4.713895l0.70774 2.184381 7.195352-0.699002c20.183683-1.965943 37.88591-10.480662 47.051573-22.638928l3.914412-5.198828 0.454351 1.363054c0.249019 0.747058-1.004815 4.036737-2.782902 7.304571l-3.232884 5.941518-6.574988 5.932779c-15.963459 14.408179-34.198674 21.660325-63.137358 25.107279-6.522563 0.77764-12.306804 1.983418-12.857268 2.678052-1.795561 2.271757-8.073473 29.79933-10.489399 46.016177l-2.363501 15.858608 0.03495 27.488255c0.017475 15.120288 0.524252 31.258497 1.122772 35.867541 1.786824 13.761602 4.893014 12.538349-36.33063 14.237798l-31.123065 1.280047-15.688227-1.253835a22870.472459 22870.472459 0 0 0-46.32199-3.612967c-16.850318-1.297523-33.879754-2.765427-37.846591-3.254728-3.966836-0.49367-7.811348-0.524252-8.549668-0.0699l-1.336842 0.830065 0.633471 17.737176 0.63347 17.745914 2.533883 12.136423 2.533882 12.140791 4.311969 9.261777 4.316337 9.266146 6.365287 6.837113 6.360919 6.837114 3.722186 0.262125c5.823561 0.401926 9.204983 1.485379 19.174499 6.142481l9.283621 4.338181 10.9787 2.014c6.041999 1.109666 15.92414 2.992602 21.96177 4.194012 11.800028 2.332919 25.557261 4.346919 55.055147 8.051629 32.48175 4.084793 41.669258 7.418159 55.518236 20.144365l8.278805 7.601647 9.349152 13.936353c5.146402 7.658441 9.349152 14.635355 9.349152 15.496001 0 5.373578-43.600251 35.076795-78.62899 53.569767-51.079573 26.968372-132.168176 51.01841-172.199149 51.075204-4.76632 0.008738-12.743681 0.795115-17.728439 1.747506l-9.060813 1.734398-27.348454-0.196594c-15.046019-0.10485-29.432354-0.358239-31.979343-0.559202z m84.404495-9.672441l2.114481-2.337288-1.354316-1.358685-1.363054-1.363054-1.02666 1.100928c-0.567939 0.602889-1.380529 2.271757-1.813036 3.695973l-0.786377 2.603783h1.05724c0.581045 0 2.009631-1.052872 3.171722-2.341657z m-11.336939-17.885714c5.788611-2.75232 6.247331-4.045474 1.428585-4.045474-7.339521 0-13.814027 6.10753-13.814027 13.040756 0 4.858064 1.498486 4.469244 4.543513-1.179566l2.970758-5.504641z m11.035494-31.791486c23.136967-2.249913 40.380473-8.26133 54.592058-19.039068l6.924489-5.251252 4.919227-7.212827 4.919227-7.217196 2.887752-9.283621c3.066871-9.864666 4.875539-24.858259 3.612966-29.899811l-0.764533-3.040659-11.821872-5.819192a1345.080856 1345.080856 0 0 1-19.91282-10.004467 332.873501 332.873501 0 0 0-12.136423-6.015786 41.503245 41.503245 0 0 1-7.313308-4.425556c-1.795561-1.428585-4.224593-2.599414-5.395422-2.599414-1.170828 0-3.604229-0.729583-5.40416-1.62518a102.665922 102.665922 0 0 0-6.159955-2.78727l-4.62652-1.861093c-0.95239-0.393189-3.81393-1.961574-6.356549-3.49501a129.096936 129.096936 0 0 0-8.090949-4.477982c-1.909149-0.930546-5.25999-3.045028-7.44874-4.700789-2.18875-1.66013-4.630888-3.014446-5.430372-3.014446-0.799484 0-2.852802-1.301891-4.569726-2.887752-1.712555-1.59023-4.176537-2.892121-5.474059-2.892121-1.297523 0-3.464429-1.035397-4.814377-2.306707l-2.455244-2.306706-3.398898-0.157276c-1.86983-0.087375-4.3775-0.401926-5.574541-0.707739l-2.175644-0.554833 1.598968-1.100928 1.598967-1.105297-4.62652 0.554833-17.042543 2.040212-12.420392 1.485379-0.63784 2.000893-0.63347 1.996525-3.416373 0.751427c-1.878568 0.415032-3.416372 1.227622-3.416372 1.813037 0 0.585414-0.38882 0.974234-0.865015 0.865015-1.59023-0.371345-7.750185 2.970759-12.547086 6.810901-2.608151 2.0839-5.010971 3.792086-5.342997 3.792086-0.332026 0-2.603783 1.83488-5.054658 4.076055-2.446507 2.245544-6.395869 4.66147-8.772476 5.373578-2.376607 0.712108-5.469691 2.520776-6.876432 4.014893-1.406742 1.494117-3.128034 2.71737-3.822668 2.71737-0.699002 0-4.036737 1.821774-7.41379 4.045475-3.381422 2.228069-6.749738 4.049843-7.488059 4.054211-1.533436 0.008738-11.079182 8.912276-16.658092 15.544058l-3.757136 4.460506v2.765427c0 11.184032 30.638132 45.347756 50.869873 56.719646 3.503748 1.965943 12.844162 6.00268 20.76036 8.964701l14.390704 5.382315 13.337832 2.686789c7.339521 1.476642 14.639724 2.918333 16.229953 3.202303 5.539591 0.98734 42.272147 0.764533 53.473655-0.327657z m1.415479-241.636262l8.077842-1.170828 17.807077-8.685101c9.799135-4.779426 19.790495-10.384549 22.215158-12.455342 2.420295-2.075162 5.810454-4.521669 7.531747-5.439109 1.721292-0.91744 6.159955-4.530407 9.873403-8.025417 8.724419-8.213274 12.197585-10.782106 17.1605-12.669412 2.2237-0.84754 5.963361-3.023184 8.309387-4.840589 2.346026-1.813036 4.849327-3.298416 5.557066-3.298416 0.712108 0 3.473166-2.446507 6.138111-5.430372 2.664945-2.988234 6.03763-6.579357 7.488059-7.97736 1.454798-1.398004 2.844064-3.578017 3.088716-4.840589 0.650946-3.368316 3.276572-7.182246 4.949808-7.182246 0.799484 0 1.454798-0.786377 1.454798-1.747505 0-2.053318 5.251253-7.73271 8.947226-9.672441 1.419848-0.747058 2.927071-2.708633 3.337734-4.360025 0.415032-1.651392 2.110112-5.312415 3.770242-8.143373 1.66013-2.826589 3.647917-6.264806 4.412451-7.640966 0.768902-1.371791 2.11885-3.023184 2.996971-3.669761 1.913518-1.41111 3.224147-7.335152 1.813036-8.208905-0.550464-0.336395-1.004815-1.612073-1.004815-2.826589v-2.206225l-3.49501-2.590677-3.499379-2.586307 0.567939-1.494117 0.576677-1.489748h-2.315444c-1.266941 0-2.603783-0.764533-2.962022-1.703818-0.358239-0.930546-2.376607-2.319813-4.491088-3.084346l-3.840142-1.389266-1.223253-2.691158c-0.677158-1.481011-2.04895-2.691158-3.045028-2.691158h-1.817405l-1.66013-3.757136c-2.184381-4.967283-3.962468-6.981283-7.566697-8.571512-1.642655-0.725215-3.049396-2.018368-3.119297-2.874646-0.074269-0.856277-0.891228-4.521669-1.808667-8.143374l-1.673236-6.588094 1.572754-2.0839c2.546989-3.350841 1.948468-4.775058-3.079977-7.339521-7.164771-3.656654-14.561086-11.070445-19.047806-19.10023l-4.032368-7.208458-1.677604-7.907461c-0.91744-4.355656-1.681974-11.459264-1.69508-15.788708l-0.021844-7.868142-1.065978 0.655315c-1.572755 0.969865-4.893014 11.620909-5.723079 18.340065l-0.725215 5.82793-3.438216 0.91744-3.442585 0.91744-1.127141-1.127141c-0.620364-0.620364-1.336841-4.639626-1.590229-8.92975-0.257757-4.285756-0.930546-8.291912-1.502855-8.894801-0.567939-0.602889-1.031028-1.992156-1.031028-3.084347 0-1.092191-0.899965-3.551804-1.996524-5.465322l-1.996525-3.477535 1.415479-3.923149c0.782009-2.158169 1.419848-4.831851 1.419848-5.945886 0-1.114034 0.782009-2.804746 1.734399-3.757136l1.734399-1.734398v-7.846298l2.402819-1.284416c1.319366-0.70774 3.14114-1.004815 4.045474-0.655315l1.642655 0.633471V440.720776l4.333813-3.979943 4.333812-3.984311 3.713448-0.699002 3.704711-0.699002 2.372238-3.333366 2.372238-3.333366 8.37055-2.429032c4.600307-1.336841 9.829716-2.905227 11.629646-3.490642 1.791193-0.585414 4.006155-0.77764 4.919227-0.428138 0.913071 0.349501 2.826589-0.109219 4.250806-1.017922l2.590676-1.66013 7.252146 0.218438c3.98868 0.126694 7.501165-0.174751 7.80261-0.66842 0.305813-0.49367 1.594598-0.624733 2.865908-0.292708l2.311076 0.607258v-3.73966h2.166906c1.197041 0 2.817852-0.77764 3.608598-1.734399l1.441692-1.73003h8.881694l4.054212-3.560542c4.001787-3.512485 6.946333-3.74403 5.679391-0.449982l-0.655314 1.69508h1.214516c0.668421 0 1.542173-0.532989 1.944099-1.183935 0.401926-0.655314 2.123219-1.044134 3.827036-0.869384l3.088716 0.323289 0.371344-2.603783 0.366976-2.599414h2.232438c2.927071 0 2.870277-1.952837-0.078638-2.892121-1.27131-0.401926-2.315444-1.197041-2.315444-1.76498 0-1.716924-8.357443-3.416372-18.32259-3.722185-5.172615-0.161644-9.410315-0.729583-9.410315-1.266942l-0.004369-0.982971-7.225933 0.91744c-3.975574 0.511145-9.698653 0.830065-12.730575 0.712108-3.027553-0.113588-7.83756 0.581045-10.690362 1.550911l-5.19009 1.760611-9.733603 0.244651-9.733603 0.240282-3.267835-2.415926c-1.79993-1.332473-4.438663-4.137218-5.871617-6.238593l-2.599413-3.822667v-8.999651l2.241175-4.394975c4.595938-9.008389 13.066969-14.312066 27.234866-17.060019l8.090949-1.568385h29.388666l16.513923 3.538697c9.087026 1.944099 20.096308 3.975574 24.478177 4.504195l7.964254 0.969865 3.307153-1.153353 3.307154-1.148985v-13.1325l-2.315444-1.97905-2.311076-1.979049v-7.855036l-3.63481-7.933673c-2.000893-4.360025-5.059027-9.493321-6.789058-11.40247-1.734399-1.904781-5.985205-7.208458-9.449633-11.778184-10.078735-13.298513-31.621104-35.609784-46.011808-47.663201-18.082309-15.137763-19.458469-16.164422-44.500217-32.966683-12.079629-8.108423-23.897132-16.596929-26.256263-18.859948l-4.285756-4.119743-6.116268-0.49367-6.111899-0.49367-15.028544 3.101821c-32.433694 6.692944-63.347058 20.524447-86.4316 38.672287-3.669761 2.887752-8.903538 6.810901-11.620908 8.72005-9.384102 6.574988-25.242711 23.508312-29.541573 31.542466-0.716477 1.336841-3.32026 4.761951-5.775505 7.601648-2.459613 2.839696-6.181799 8.676363-8.270067 12.962118l-3.796455 7.789504-1.153353 10.06126c-1.629548 14.189741-1.061609 14.949906 13.084444 17.457576 26.93779 4.779426 45.085631 17.378938 45.076893 31.293447l-0.004369 4.971652-2.389713 3.91878-2.389713 3.914411-7.745817-0.646577c-4.259544-0.358239-11.079182-1.804299-15.155237-3.215409-4.076056-1.406742-12.56893-3.726555-18.873055-5.146402l-11.472371-2.586308-4.215855 0.49367c-5.731817 0.668421-8.921013 2.415926-10.423868 5.709973l-1.258204 2.769796 0.712109 5.181352c0.38882 2.852802 1.419848 5.775504 2.289231 6.49635 0.865015 0.720846 1.572755 2.127587 1.572755 3.128034 0 2.062056 5.574541 8.291912 7.444371 8.322493 2.525145 0.043688 14.884374 9.087026 22.673878 16.601298 6.666732 6.422081 13.254826 11.096657 15.657646 11.109763l2.424663 0.008738 2.140694 4.753214c1.179566 2.61252 3.538698 6.247331 5.246884 8.073473 5.107084 5.460953 7.924935 18.034252 7.968623 35.509303l0.021844 9.611278-1.262573 2.359132-1.262572 2.359131-4.73137-4.927964-4.735739-4.923595-1.441692-5.557066c-1.878568-7.252146-9.515165-20.183683-14.941168-25.295136l-4.285756-4.045474 0.720846 3.468797c0.393189 1.909149 1.293154 6.330337 1.992156 9.829716l1.280047 6.352181-0.733952 6.937595-0.733952 6.933226-3.49501 8.803057-3.49501 8.803057-5.626967 6.317231c-3.101821 3.477535-10.135529 9.349152-15.644539 13.049494l-10.013204 6.727894 0.502408 4.159062c0.279601 2.284863 0.013106 5.587647-0.585414 7.339521l-1.087822 3.176091h-2.359132c-1.301891 0-5.801717 2.175644-10.004466 4.83622l-7.636598 4.83622-3.180459-0.231544-3.180459-0.231544v1.791192c0 0.982972-0.91744 2.162538-2.040212 2.621258-2.463982 1.000447-12.983963 12.158266-12.983963 13.77034 0 1.843618-3.363947 8.073473-5.172615 9.571959l-1.66013 1.37616 1.380529 2.214963 1.384898 2.210593-1.432954 2.29797c-2.162538 3.464429-1.769349 5.32989 2.031475 9.663703 1.909149 2.171275 3.468798 4.4474 3.468797 5.050289 0 0.611627 1.769349 3.398897 3.931887 6.203643 2.158169 2.809114 6.85022 10.921907 10.423867 18.038621l6.49635 12.931538 2.289232 0.729583 2.289232 0.725215v6.234224l8.090948 8.637044c4.4474 4.748845 8.090948 9.121976 8.090948 9.711759 0 0.594152 0.305813 0.773271 0.677159 0.401926 0.865015-0.865015 5.102715 2.726108 5.102714 4.325075 0 2.171275 10.432605 13.193663 17.719702 18.720148 3.923149 2.970759 8.65015 7.195352 10.506874 9.379734l3.377053 3.971205 7.177877 3.219778c3.949361 1.773718 7.514272 3.757136 7.920567 4.416819 1.760611 2.848433 14.82758 8.995282 25.513574 12.000991 6.374025 1.791193 14.185372 3.98868 17.365832 4.875539 10.598618 2.957652 26.098988 3.647917 39.283913 1.743136z m-25.27766-53.713937l-9.108871-1.594598-6.312862-3.189197c-3.473166-1.760611-8.300649-5.185721-10.734049-7.619122l-4.421188-4.421188-1.716924-5.041552-1.716924-5.037183 1.275679-1.275679c0.699002-0.699002 3.770242-1.275679 6.824007-1.275678h5.548329v-1.109666c0-0.611627-3.770242-2.228069-8.379287-3.595492-15.04165-4.464875-26.299951-10.454449-26.299951-13.993147v-1.197041l4.914858 0.733953c2.699895 0.406295 10.891325 1.031028 18.204634 1.389266l13.294145 0.655314 13.250457-2.424663c7.287096-1.332473 16.797892-2.420295 21.131705-2.420294h7.881248l4.150324-1.734399c2.280494-0.956759 6.347812-1.734399 9.03897-1.734399h4.888645l3.931887 2.892121c2.158169 1.59023 7.824454 4.831851 12.590774 7.199721l8.671994 4.3076 10.305911 0.026212 10.301542 0.021844 0.463089 1.384898 0.463089 1.380529-4.871171 3.52996c-2.68242 1.939731-5.443478 3.547435-6.14248 3.564911-0.699002 0.021844-2.75232 1.336841-4.556619 2.92707l-3.28531 2.887753-0.515514 3.722185-0.515514 3.722186-5.635704 5.321153c-3.097453 2.927071-8.671994 7.068658-12.381073 9.200614l-6.749738 3.879461-17.339619 0.253389-17.335251 0.253388z m19.506525-84.928746l-9.261777-0.812589-5.19009-2.302338c-2.852802-1.266941-5.89783-3.158615-6.762845-4.207119l-1.572754-1.90478 0.690264-1.799931c1.481011-3.866355 20.581241-8.628306 34.613707-8.632674h6.727894l1.686343-1.686343c2.765427-2.765427 11.031126 4.849327 12.765524 11.760709l0.716477 2.857171-2.861539 2.861539c-4.792533 4.792533-11.555377 5.622598-31.551204 3.866355zM448.841989 705.625068c-8.868588-7.466215-29.991556-22.429227-47.208849-33.43851-3.748398-2.398451-8.951595-6.028892-11.559746-8.073473-9.772922-7.645335-26.431014-18.824998-28.047457-18.824998h-1.681973l2.088268 3.582385c3.245991 5.561435 23.171917 24.137414 32.756983 30.537651 10.035048 6.697313 49.18353 26.850415 52.49942 27.025166l2.254282 0.117956z m319.985651-169.398772l4.464876-7.916198 0.074269-3.639179c0.043688-2.005262 0.786377-5.045921 1.655761-6.762845 0.865015-1.716924 1.581492-4.316337 1.58586-5.779873 0-1.463535 0.803852-4.194012 1.782456-6.07258 0.978603-1.874199 1.642655-4.473613 1.476641-5.775504-0.170382-1.301891 0.096113-3.014446 0.589783-3.809561 0.49367-0.790746 1.039766-8.256961 1.218885-16.588192l0.323288-15.150869-4.456137 0.716477c-2.455245 0.393189-7.182246 1.616442-10.506875 2.717371l-6.041998 2.005262-2.61252 9.244302c-3.412004 12.088366-11.708284 28.851309-17.575533 35.513671-5.211934 5.919673-5.600754 7.252146-2.577569 8.868588 1.144616 0.611627 4.919227 4.106637 8.379286 7.76766l9.467109 9.982623 3.171722 3.342103 2.555726-0.371344 2.560095-0.371345z m-38.532486-24.565552c1.970312-1.66013 4.954177-5.351734 6.627413-8.213274l3.049396-5.198828 0.532989-8.318124 0.537358-8.313755-3.145509-6.304124c-2.708633-5.426003-6.754107-10.231642-8.689469-10.319018-0.31892-0.013106-0.393189 6.483244-0.170382 14.434392l0.410664 14.460604-3.014447 9.07392c-4.298862 12.970856-3.46006 14.858162 3.861987 8.693838z m-58.803546-25.928607l2.232438-1.197041v-7.252146l-1.913518-2.110112c-2.376607-2.629995-5.915305-2.708633-8.689469-0.200963l-2.110112 1.913518v7.619122l2.022737 1.179566c2.621258 1.529067 5.661916 1.546542 8.453556 0.048056z m-270.216707-22.03167l1.153353-1.843617-0.742689-2.940178c-1.384898-5.535222-8.082211-4.90612-9.541378 0.899965l-0.716477 2.870277 1.472273 1.778087 1.476642 1.773717 2.870277-0.349501c1.581492-0.187857 3.39016-1.175197 4.027999-2.184381z m349.348105-60.433093c1.253835-0.878121 3.32026-1.856724 4.59157-2.180013l2.315444-0.581045-4.215856-0.131063-4.211487-0.139801-0.664052-1.73003c-0.366976-0.956759-1.459167-1.734399-2.433401-1.734398a1.756243 1.756243 0 0 0-1.769349 1.734398c0 0.95239 0.519883 1.73003 1.153354 1.73003 0.637839 0 1.157722 1.044134 1.157722 2.315445 0 2.721739 0.965497 2.892121 4.076055 0.716477z m117.183321 132.78854a1023.531188 1023.531188 0 0 0-0.506777-16.142578l-0.332026-8.051629 1.253835 2.241175c0.690264 1.231991 1.485379 7.514272 1.773718 13.962565l0.524251 11.725759-1.266941 2.175644-1.266941 2.184382z" fill="#DDAFA2" p-id="31872"></path><path d="M493.407737 1022.578798c-95.881234-5.150771-179.800796-32.499225-253.899379-82.744365-12.979594-8.798688-14.600405-10.301542-13.682965-12.686886 1.485379-3.870724 22.014195-15.325619 74.548566-41.603727 30.830358-15.421732 58.401619-29.733799 61.25879-31.804592 2.86154-2.070793 7.723972-5.653179 10.808319-7.959886 3.079978-2.311075 7.440003-4.967283 9.685546-5.906567l4.080425-1.703817 3.320259 1.371791 3.32026 1.37616 8.309386-7.841929c21.878763-20.642404 31.280341-44.775448 34.513225-88.629087l1.280048-17.370201-1.083453-1.079084-1.079085-1.083453-25.308242-1.026659c-13.918878-0.56357-30.50707-1.542173-36.863619-2.171275-6.35655-0.629102-19.87787-1.310629-30.057087-1.507224l-18.492972-0.362607-0.131063 6.933226c-0.074269 3.81393-0.205332 7.645335-0.288338 8.519088l-0.157276 1.572754-7.80261-0.795115c-4.290125-0.436876-14.041203-2.097006-21.669063-3.687235a1536.764686 1536.764686 0 0 0-32.368162-6.247331c-10.170479-1.843618-29.082853-5.692498-42.023128-8.549668l-23.525787-5.198828-6.03763-2.765427-6.028892-2.761058-3.097453-10.895694-3.088715-10.895694v-20.847735c0-11.468002-0.764533-32.512332-1.69508-46.767604a7793.610437 7793.610437 0 0 1-2.927071-47.304962 2218.374666 2218.374666 0 0 0-2.450876-36.859251c-2.424663-30.895889-1.16646-89.68196 2.420295-112.827664 5.216303-33.705004 14.137316-70.144853 26.736827-109.232172 11.083551-34.382162 35.880648-92.429911 58.021537-135.820462 4.316337-8.457924 17.658539-30.341057 20.44144-33.521516 8.999651-10.288436 6.325968-10.790844-5.176984-0.978603l-9.012757 7.689022-1.856724-1.205778-1.856724-1.205779 0.183488-2.761058c0.371345-5.609491 17.274088-28.514914 36.750031-49.795156 14.692149-16.059571 29.524098-29.02169 49.450025-43.2158l14.181003-10.104948 21.018117-10.808319 21.018117-10.812688 18.859949-6.208011 18.859948-6.208012 12.713099-2.123219 12.717468-2.123218 33.521516 0.10485 33.521516 0.10485 14.447498 3.713448 14.451867 3.713449 13.870821 7.003126c15.299407 7.73271 16.339172 8.431712 32.534176 21.974876l11.271407 9.414684 9.305465-3.363947 9.305464-3.363948h24.272846l6.937595 4.250806c7.077395 4.34255 12.503399 9.458371 15.976565 15.067863l1.93973 3.136771 16.470235 8.042892c9.060814 4.425557 22.175839 11.856822 29.148385 16.513923l12.678149 8.466662 11.594696 10.913169c26.151413 24.604871 43.054156 51.131998 52.206714 81.940513l2.975127 10.021941 0.904334 17.343988 0.899965 17.33525 2.913965 8.667625a3238.170562 3238.170562 0 0 0 8.121529 23.696169c5.338628 15.391151 12.123316 43.88859 14.862531 62.42088l1.537804 10.397655-0.043687 30.633764-0.03495 30.633764-1.463536 9.244302c-0.803852 5.089608-1.922256 10.550562-2.490194 12.140791-3.971205 11.201507-10.222905 25.666481-12.949013 29.987187-1.791193 2.826589-3.250359 6.509456-3.250359 8.182692v3.03629l2.927071 2.747952 2.922702 2.747952-3.350841 2.621257-3.350841 2.621258-0.747059 3.792086c-0.415032 2.0839-2.11885 7.282727-3.787717 11.54664l-3.031921 7.754553-3.748398 4.093531c-2.062056 2.249913-4.587201 4.093531-5.61386 4.09353h-1.865462v-4.137218c0-2.271757 1.157722-11.245195 2.573201-19.939033l2.573201-15.806183-0.021843-21.380724-0.021844-21.385093-3.669761-14.61788c-17.282825-68.860437-70.773955-136.270444-149.158294-187.966013-11.000544-7.252146-23.119492-15.788708-26.933422-18.96043l-6.933226-5.766767-6.028893-0.624733-6.028892-0.624733-14.744574 1.904781c-46.566641 6.00268-102.70961 34.731663-128.965873 65.985791-2.140694 2.54262-6.819638 7.820085-10.406393 11.730128-9.060814 9.882141-10.463187 11.904878-20.402122 29.401772l-8.781213 15.452314-0.222806 5.744922-0.231545 5.740555 4.62652 0.821327c2.54262 0.445614 11.384995 1.716924 19.646325 2.817852l15.028544 2.000893 10.817056 3.407635 10.817057 3.407635 6.186167 3.958099 6.190537 3.958099 2.935809 5.006602 2.931439 5.006602v8.152111l-2.394082 3.045027-2.39845 3.049397h-2.555726c-1.402373 0-7.916198-1.826143-14.473711-4.054212-16.435285-5.592016-33.705004-9.847191-44.31236-10.921907l-8.912275-0.908702-8.951595 0.873752-8.942857 0.873753-2.756689 3.311522c-1.515961 1.821774-3.739661 5.391053-4.936702 7.933673l-2.18875 4.62652-0.026213 7.046814-0.026212 7.051183 3.477535 4.796901c1.909149 2.638733 3.695973 4.796901 3.966836 4.796901 12.67378 0 40.279992 9.327308 53.464917 18.060465l9.467109 6.273543 7.531747 8.248224 7.531747 8.256962 4.73137 9.344783 4.73137 9.349152 1.231991 8.344337 1.231991 8.348705-0.782009 4.163431-0.782008 4.163431-1.725662-1.432954c-2.503301-2.079531-3.866355-4.989127-5.792979-12.402918-2.830958-10.87385-19.196343-31.411403-25.03301-31.411403h-1.703817l2.918333 7.798241 2.909596 7.80261 0.122325 9.829716 0.122326 9.820979-3.206672 8.711312-3.202303 8.711313-4.997864 6.090055c-5.439109 6.627413-13.490739 12.520874-21.310825 15.596483l-4.980389 1.957206-12.651937-0.768903-12.651936-0.764533-4.718264 2.127587-4.718264 2.127588-1.922255-1.205779-1.926625-1.205778-0.358238-4.194012-0.358239-4.20275-2.477088-1.734399-2.47272-1.734399-2.739214 2.573202c-1.507223 1.415479-4.194012 5.696866-5.972098 9.519533-1.778086 3.818299-4.390606 7.977361-5.801717 9.244302-8.230749 7.352628-16.155684 42.953674-11.498583 51.651881 0.694633 1.297523 2.210594 5.557066 3.363947 9.458371 3.158615 10.659781 8.187061 25.369405 9.349152 27.32661 3.962468 6.697313 6.828376 12.997069 6.828376 15.028544 0 1.310629 1.293154 4.945439 2.874646 8.069105l2.883383 5.679391-0.694633 1.791193c-1.424217 3.713448-12.424761-1.079084-28.082407-12.236904-3.438216-2.450876-6.950701-4.456138-7.80261-4.456138h-1.546542v6.535669l3.429479 5.111452c12.512136 18.654617 41.297913 41.616833 69.223044 55.22116 7.850666 3.827036 15.281932 7.87251 16.513923 8.986544 3.398897 3.075609 26.465964 12.416023 54.168288 21.935558l24.849522 8.540931 12.136423 1.716923c19.178868 2.713002 45.041943 1.074716 54.906609-3.481903 1.909149-0.88249 8.562775-3.429479 14.788261-5.661917 13.993147-5.019708 40.367367-17.72407 55.741043-26.854784 6.352181-3.770242 12.328648-7.173508 13.281038-7.562328 4.2377-1.738768 37.020895-24.622346 46.841873-32.700188 11.551008-9.506428 28.121725-27.405248 40.227567-43.451714 4.054212-5.373578 8.641413-10.353967 10.187954-11.061707 1.550911-0.703371 4.093531-3.154247 5.657548-5.443478 3.398897-4.971652 4.805639-5.64881 8.706944-4.167799 1.62518 0.620364 4.613413 1.144616 6.640519 1.166459 3.98868 0.043688 9.829716 2.708633 8.169586 3.722186-0.56357 0.345132-4.665839 0.978603-9.113239 1.415479-4.451769 0.432508-8.999651 1.039766-10.113685 1.349948l-2.022737 0.56357v3.840142c0 2.114481-1.354316 8.96907-3.005709 15.238245-7.356996 27.903287-10.904432 80.586196-7.339521 109.000628l1.214516 9.694284-1.502855 1.498486-1.507223 1.498485-30.629395 1.297523-30.633763 1.301891-13.289776-0.768902c-11.096657-0.637839-59.275372-4.373131-92.159048-7.142927l-8.353074-0.703371-0.786378 2.044581c-1.266941 3.32026 1.55528 38.383949 4.058581 50.301933l2.302338 10.978701 3.993049 8.671993c4.980389 10.790844 9.838453 17.501263 15.832396 21.843814l4.639626 3.359578 4.41245-0.594152 4.416819-0.589783 12.713099 5.906567c6.99002 3.245991 13.901403 5.906567 15.356201 5.906568 1.459167 0 9.218089 1.328104 17.243506 2.957652 16.867793 3.416372 44.775448 7.667178 67.19157 10.227273 29.248866 3.346472 37.112639 6.247331 51.494605 18.999749l9.982622 8.846744 4.578464 7.514272a276.900914 276.900914 0 0 0 8.562775 13.132501c6.247331 8.807425 5.998311 9.165664-17.763389 25.806281-59.908842 41.953228-128.079015 70.092428-198.21513 81.813818-27.195547 4.543513-33.621997 4.360025-28.908103-0.830065 1.297523-1.428585 2.68242-3.975574 3.079978-5.657548l0.720846-3.058134-2.228069-2.721739-2.236807-2.71737-2.053318 1.253835c-1.13151 0.690264-3.254728 3.521223-4.718264 6.291018-1.463535 2.765427-3.429479 5.884723-4.373131 6.924489-0.943653 1.039766-1.712555 2.459613-1.712555 3.149878 0 2.944546-35.509303 5.491535-58.952083 4.228962z m50.861134-12.140792c0-1.258204 1.070347-4.386238 2.376607-6.950701l2.380976-4.665838 4.844958-2.201857c2.664945-1.210147 5.75366-2.210594 6.867694-2.2237 2.354763-0.030581 2.599414-1.297523 0.633471-3.263466l-1.384898-1.384897-5.25999 0.004368h-5.25999l-3.700342 2.258651c-2.035843 1.240729-4.560988 3.927518-5.618229 5.963361l-1.913518 3.709079 0.598521 4.482351c0.934915 6.959439 5.434741 10.502505 5.43474 4.272649z m20.227371-46.125396c50.432996-5.530854 74.137902-27.15186 78.681416-71.748189l0.773271-7.597278-1.432955-8.510349-1.437322-8.514719-3.03629-2.778533c-3.901305-3.573648-16.120734-12.485924-23.678694-17.269719a122.351567 122.351567 0 0 1-11.057338-8.090948c-2.852802-2.402819-6.583725-5.238146-8.291912-6.299756-1.712555-1.061609-5.963361-5.482797-9.445265-9.825347-3.481904-4.34255-8.492875-9.454002-11.131607-11.358783a105.994919 105.994919 0 0 1-8.230749-6.649257c-1.882937-1.747505-4.080424-3.189197-4.879908-3.197934-1.332473-0.021844-9.912722-5.229409-13.254825-8.051629-0.768902-0.646577-2.0839-1.179566-2.922703-1.179566-0.838802 0-2.721739-0.830065-4.180906-1.856724-3.822667-2.678052-15.53532-8.51035-17.125549-8.527825-0.74269-0.008738-2.826589-0.760165-4.62652-1.668867-4.997864-2.529514-22.695722-8.951595-24.652927-8.947226-0.956759 0-5.216303-0.795115-9.467109-1.769349l-7.73271-1.778087-4.403713 2.708633c-6.540038 4.019262-17.466313 15.220769-19.427887 19.917189-0.943653 2.25865-2.415926 4.530407-3.276572 5.041552-0.856277 0.511145-2.031475 1.791193-2.61252 2.848433-0.576677 1.057241-2.656208 3.682867-4.622151 5.832299-1.961574 2.1538-5.032815 6.413344-6.828376 9.475846-3.582385 6.10753-24.915053 27.807174-33.639472 34.207411-9.017126 6.623044-15.260088 13.040757-17.199819 17.684751l-1.826143 4.368763 1.293154 4.866802c3.844511 14.486817 26.846046 43.853639 46.74576 59.677297 9.812241 7.806979 19.768651 12.983963 36.409268 18.929849l14.447498 5.163877 12.7131 2.385345c6.998758 1.310629 13.761602 2.616889 15.028543 2.89649 4.595938 1.009184 44.16819 0.729583 54.329932-0.384452zM401.135101 465.364966c2.774164-2.50767 2.686789-6.758476-0.200963-9.646228-2.992602-2.992602-4.124112-2.913965-7.566697 0.524252-6.312862 6.317231 1.162091 15.098444 7.76766 9.121976z m140.87512 199.38159l-7.453109-1.065978-6.99002-3.337735c-3.84888-1.83488-8.527825-4.936702-10.397655-6.893908l-3.403267-3.551804 1.341211-1.34121c0.74269-0.74269 3.311522-2.035843 5.714341-2.883383l4.373132-1.546542 13.438313 1.258204 13.442683 1.262572 8.519087-1.144616c4.687682-0.629102 10.332124-1.061609 12.538349-0.965496l4.019262 0.17475 0.401926-2.022737 0.401926-2.022737h-4.194012c-2.311075 0-7.680285-0.511145-11.93546-1.135878-4.255175-0.629102-14.495554-1.979049-22.761253-2.996972-27.566892-3.407635-53.478024-11.280145-50.896085-15.461051l0.611627-0.991709 6.649257 1.852356 6.644888 1.856724 16.762942 0.004369 16.758573 0.008737 6.35655-1.677605 6.360918-1.677605 12.857269 0.174751 12.857268 0.183488 3.647917 1.887305c2.009631 1.035397 7.929304 2.992602 13.149976 4.34255l9.502059 2.450876 11.328201-0.0699 11.323833-0.0699-0.415033 1.245097c-0.664052 1.987787-7.903092 5.308047-17.160499 7.872511-11.26267 3.119297-16.87653 8.361812-10.004467 9.344783l2.590677 0.371345 0.366976 1.909149 0.362607 1.909149-3.451323 3.927518c-1.891674 2.158169-6.221118 5.32989-9.611277 7.046814l-6.168693 3.123665-15.011069-0.144169c-8.256961-0.078638-18.366278-0.620364-22.468546-1.210147z m164.85089-129.267318l-5.460954-3.464429-5.211933 1.170828-5.211934 1.16646-7.758923-1.192672c-4.263912-0.655314-11.140345-2.201856-15.268825-3.429479l-7.514272-2.236806-4.810008-4.967284c-2.64747-2.730477-6.465769-7.80261-8.492874-11.271407l-3.682867-6.312862-1.73003-8.139005-1.734399-8.139005 0.733952-10.113685 0.729584-10.113686h-1.179566c-2.1538 0-7.195352 9.012757-9.786029 17.501263-1.402373 4.595938-3.232884 8.584619-4.062949 8.86422l-1.507223 0.502407 0.449983-8.519087 0.445613-8.523456 3.538698-7.514271c8.868588-18.833736 30.721139-36.902938 53.049885-43.875484l8.090948-2.525145 12.769894-0.655314 12.765524-0.655314 8.016679 1.398004c4.41245 0.764533 8.549669 1.821774 9.196246 2.350394 0.646577 0.524252 3.123665 1.760611 5.500272 2.743583l4.325075 1.791193 3.35521-2.82659c1.847987-1.55528 3.971205-2.826589 4.718263-2.826589h1.363054l-0.773271 6.168693-0.768902 6.173061 8.632675 5.377947c10.878219 6.78032 17.86387 9.965148 21.931189 9.995729l3.17609 0.026213v2.228069c0 3.333366-4.508563 6.256068-14.482448 9.401577l-8.947226 2.82222-1.441692 2.311076c-0.795115 1.266941-2.341657 6.081318-3.438216 10.694731-1.096559 4.609045-2.892121 9.554484-3.98868 10.9787-1.100928 1.428585-3.464429 5.32989-5.25999 8.667625-1.795561 3.337735-3.757136 6.07258-4.360026 6.072581h-1.096559l0.720846-1.887306c0.397557-1.035397 1.30626-4.194012 2.018368-7.02497l1.293154-5.142034-0.646577-7.715235c-0.35387-4.2377-1.813036-10.834531-3.237253-14.648461l-2.595045-6.933226-3.381422-3.162984c-3.359578-3.136772-11.813134-6.49635-13.106288-5.203197-0.371345 0.366976 0.725215 4.727001 2.437769 9.681178l3.110559 9.012758-0.515514 12.175741-0.511145 12.175742-2.603782 6.500719c-1.428585 3.582385-5.404159 10.231642-8.824901 14.783892l-6.229856 8.278806 1.996525 0.707739c1.100928 0.393189 2.909596 1.494117 4.02363 2.446507l2.022737 1.738768v6.574987h-2.664945c-1.463535 0-5.12019-1.55528-8.125898-3.464428z m-34.543807-49.192268l2.568833-1.79993V476.618899l-2.533882-2.359132c-3.206672-2.992602-7.217196-3.010077-10.179217-0.043688l-2.315445 2.311076v7.959885l2.568833 1.79993c1.41111 0.98734 3.639179 1.79993 4.945439 1.79993 1.30626 0 3.52996-0.81259 4.945439-1.79993z m57.886106 46.356941c-2.2936-1.55528-4.477982-3.634811-4.849327-4.613414l-0.685896-1.782455 2.490195-2.319813c1.367423-1.275679 2.782902-2.315444 3.136772-2.302338 2.149431 0.061163 9.943304 5.57891 10.266592 7.265253l0.393188 2.022737-2.695526 2.245544c-3.394529 2.830958-3.110559 2.848433-8.055998-0.515514z m44.666229-135.453486c-11.961672-7.234671-21.6778-10.755894-41.612464-15.089706l-8.090949-1.756243-19.074018-0.170382-19.069648-0.166013-14.58293 3.18046c-8.021048 1.747505-16.208109 3.17609-18.204634 3.17609h-3.626073l-2.311076-2.311075-2.311075-2.311076v-10.06126l2.61252-3.879461c3.717817-5.513378 11.524796-11.118501 18.532291-13.307252l6.020155-1.878567 14.491186-0.611627 14.495554-0.602889 12.092735 2.022737c6.649257 1.114034 17.387675 3.508116 23.862182 5.321153l11.773815 3.298415 9.034601 5.33426c9.42779 5.570172 21.393831 14.753311 27.815912 21.350143l3.757136 3.857617v3.014446c0 6.99002-5.71871 7.571066-15.60522 1.59023z" fill="#C68878" p-id="31873"></path><path d="M471.952743 1020.888087c-53.954219-4.163431-110.346207-18.846842-162.911159-42.420686-33.250653-14.914956-82.648252-45.164268-82.648252-50.612115v-1.73003l8.755001-5.714341c4.814376-3.145509 33.923442-18.235215 64.688268-33.534623 30.764827-15.303776 57.383697-29.008584 59.153046-30.459013 1.773718-1.450429 5.076502-3.757136 7.34389-5.128927 2.271757-1.367423 5.128927-3.59986 6.35655-4.958546 4.285756-4.740107 15.530951-8.925382 15.530951-5.784241 0 0.589783-1.284416 2.595045-2.85717 4.464875-4.014893 4.770689-5.233778 8.606462-5.233778 16.465866v6.81527l2.315444 6.194906c7.623491 20.37154 35.670947 53.81005 56.361407 67.191569 12.538349 8.117161 37.759216 17.562426 55.758518 20.891423 5.399791 0.996078 12.778631 2.385344 16.391597 3.079978l6.570619 1.266941 22.905423-0.751427c71.547226-2.341657 99.293237-22.285058 103.876069-74.670891l0.760165-8.667626-1.367423-7.514271c-2.346026-12.931537-9.10887-24.591765-20.253584-34.91952l-4.626519-4.281387 3.59986-0.052426 3.599861-0.043687 10.729681 5.32989 10.729681 5.329891 7.632228 0.978602c4.198381 0.541727 12.804843 2.075162 19.126443 3.407635 13.123763 2.765427 25.513574 4.657101 52.661065 8.038524 26.343639 3.280941 37.658734 5.500272 45.01573 8.8249l6.291019 2.839696 6.465768 6.033261c3.551804 3.315891 7.820085 7.151664 9.480215 8.519087 1.66013 1.371791 5.185721 6.055105 7.828823 10.406393a279.120246 279.120246 0 0 0 8.768106 13.503845l3.966837 5.592016-1.210147 2.263019c-2.568832 4.805639-37.414083 28.772671-62.333506 42.879406-51.804787 29.331872-116.012492 50.87861-171.91081 57.693879-13.010175 1.585861-14.237797 1.266941-11.454896-2.979496l1.887306-2.883383v-5.299309c0-6.308493-2.088269-10.755894-6.981283-14.875637l-3.595491-3.027553h-4.263913c-5.622598 0-11.795659 3.416372-14.504292 8.021049l-2.175644 3.713448V1009.581729l2.249913 3.014446c1.23636 1.66013 2.870277 3.219778 3.626073 3.473166l1.371792 0.454352v-3.67413c0-5.32989 3.154247-11.15782 7.48369-13.835871 6.727894-4.154693 9.187508-2.57757 6.203643 3.975574l-1.34121 2.940177h-1.869831c-1.026659 0-3.031921 0.81259-4.451769 1.808668l-2.57757 1.808668 0.297076 4.683313 0.305814 4.683314-5.203197 1.581492-5.203196 1.581492-27.741643-0.144169c-15.260088-0.083006-32.97542-0.550464-39.371289-1.048503z m57.859893-270.339033l-8.099686-0.655314-4.429926-4.041106c-2.43777-2.228069-5.163877-4.460507-6.059473-4.971652-5.460953-3.088715 0.602889-3.993049 9.235564-1.37616 5.522116 1.673236 10.166111 2.271757 26.54897 3.42511 4.368763 0.305813 8.58025 1.087822 9.353521 1.73003 0.77764 0.646577 1.83488 0.786377 2.359132 0.314551l0.943653-0.856278-0.786377 1.376161-0.786378 1.371791 2.359132-0.17475 2.367869-0.17912-0.546095-1.428585-0.550464-1.424217 1.603336 0.611627 1.603336 0.615996-0.930547 2.507669-0.934915 2.503301-2.175644 0.043688c-1.197041 0.021844-2.822221 0.441245-3.617335 0.934915l-1.441692 0.891228v-1.039766c0-0.567939-1.432954-0.865015-3.180459-0.655314a114.417894 114.417894 0 0 1-22.835522 0.480564z m152.006727-4.814376a3872.12171 3872.12171 0 0 0-36.990313-2.774165c-33.010371-2.346026-58.056487-5.059027-59.476335-6.448293l-1.109665-1.079085 1.686342-1.51596c0.926178-0.830065 6.365287-3.232884 12.088366-5.338628 31.21044-11.481108 87.20924-44.264303 115.872692-67.833778 11.446158-9.410315 29.576523-29.008584 40.952781-44.251197l6.99002-9.370996 2.761058-0.690264c1.515961-0.380082 3.538698-0.393189 4.491088-0.026213l1.738768 0.664052-0.021844 3.21541c-0.008738 1.769349-1.057241 7.116714-2.324182 11.883034-1.266941 4.770689-3.39016 15.172713-4.709526 23.119492l-2.402819 14.447498-0.969866 28.322688-0.969865 28.31832 1.039765 8.090948c0.567939 4.451769 1.052872 10.563668 1.074716 13.582483l0.03495 5.491535-1.44606 0.157275c-5.163877 0.559202-64.557206 3.372685-66.173648 3.132403-0.637839-0.091744-6.098793-0.585414-12.140792-1.096559z m-372.201102-10.882588a344.393928 344.393928 0 0 1-20.227371-3.98868c-5.723079-1.34121-16.247428-3.433847-23.385987-4.652733-15.129025-2.586307-24.11557-4.403713-49.436918-10.008835L198.075013 712.108312l-4.622151-2.490195-4.62652-2.490195-3.420741-9.825347-3.420741-9.825347-0.218438-23.115123c-0.253388-26.129569-2.263019-69.389057-4.027999-86.693726-2.332919-22.831154-3.656654-53.779468-3.787718-88.423756l-0.131062-35.255915 2.070793-18.497341c3.473166-31.040059 5.321153-42.141084 9.620015-57.794361 2.271757-8.265699 5.605122-20.76036 7.418159-27.767855 1.808668-7.007495 5.692498-20.271059 8.628307-29.476042a2471.457086 2471.457086 0 0 0 6.56625-20.777835c0.668421-2.228069 2.948915-8.208905 5.067765-13.294145a961.866103 961.866103 0 0 0 8.055998-20.227371 327.132947 327.132947 0 0 1 8.663256-20.227371c2.446507-5.089608 6.264806-14.189741 8.484137-20.227371 16.671198-45.378338 34.500119-76.165008 60.5161-104.513909 9.834085-10.716575 9.838453-10.541824-0.187856-7.916198l-7.780767 2.040212-1.642654-2.245544c-3.630442-4.962914-0.061163-10.38018 19.895345-30.192518 22.678247-22.516603 45.928802-39.096057 76.208695-54.343039l19.20945-9.67244 18.082308-5.93278 18.082309-5.928411 14.464973-2.280494 14.469342-2.276125 33.521516 0.502407 33.521516 0.506777 12.713099 3.582385 12.713099 3.582385 15.028544 7.514272 15.028543 7.52301 9.825347 8.22638a1287.343289 1287.343289 0 0 1 13.691702 11.594696c4.69642 4.097899 4.338181 4.089162 12.573299 0.305813l6.67547-3.066871 11.830609-0.528621c15.072231-0.677158 15.801814-0.463089 26.160151 7.76766l8.65015 6.876433 0.375713 2.656207 0.375714 2.656208 21.96177 10.978701 21.96177 10.983069 8.095317 6.028892 12.132054 9.030233c26.745565 19.921558 54.897871 61.520916 61.817991 91.33772l1.760611 7.601647 0.463089 15.823659 0.467458 15.819289 2.315444 6.937595c1.280047 3.81393 5.002233 13.958197 8.274437 22.542816 6.63615 17.383307 13.936353 44.836611 17.055649 64.15091l2.053318 12.7131-0.026212 34.679238-0.026213 34.674869-1.41111 6.810901c-1.917887 9.248671-9.506428 29.677005-14.58293 39.244595l-4.163431 7.841929 0.104851 4.263912c0.218438 8.881694-8.204536 32.302631-13.355308 37.14322l-2.708633 2.54262-0.777639-1.258204c-0.428139-0.690264 0.611627-11.524796 2.306706-24.071882l3.079978-22.813679-0.559202-19.069649-0.567939-19.074017-3.621704-12.485924c-20.786573-71.595282-70.948705-133.395799-151.041231-186.087445-10.222905-6.727894-21.594794-14.679042-25.277661-17.680382l-6.692944-5.452216-5.351734-1.026659-5.356103-1.02666-17.335251 1.288785-17.343987 1.288785-13.342201 3.28531-13.342201 3.285309-16.129472 6.924489c-19.70312 8.457924-33.875386 16.195003-51.538293 28.126094l-13.442683 9.078289-11.900509 12.416023c-10.249117 10.690362-16.601298 18.344434-27.007691 32.516701a103.583362 103.583362 0 0 1-5.334259 6.491981c-4.897383 5.443478-11.634015 17.885714-13.442683 24.827678l-1.651392 6.334706 1.887305 1.37616c1.035397 0.760165 5.871617 1.673236 10.747157 2.031475 4.87117 0.362607 16.400335 1.502854 25.618424 2.54262l16.758573 1.891674 9.248671 2.861539c20.043883 6.203643 30.54202 15.662014 29.275078 26.365483l-0.375713 3.206672-2.970759 2.206225-2.970759 2.206225-7.986098-3.010077c-4.394975-1.651392-15.539689-5.133296-24.770884-7.737079l-16.784786-4.735739-20.227371-0.541726-20.227371-0.541727-4.862433 1.310629c-2.673683 0.716477-6.408975 2.608151-8.300649 4.198381l-3.438216 2.896489-1.79993 5.456585c-0.991709 2.996971-2.32855 8.256961-2.970759 11.677703l-1.170828 6.225486 1.371791 4.587201 1.37616 4.578463 2.380976 1.494117 2.385344 1.494117 9.825348 0.751427c24.198576 1.856724 38.436374 5.233778 52.285351 12.39418l9.554484 4.936702 11.577221 11.599064 11.577221 11.603434 4.456138 9.126345 4.456138 9.130714 1.179566 8.396762c0.646577 4.617782 0.825696 9.314202 0.393188 10.441343l-0.77764 2.035843-1.690711-1.690711c-0.930546-0.926178-2.468351-4.674576-3.420741-8.33123-3.215409-12.341754-11.568483-23.377249-24.015088-31.725955-5.526485-3.709079-6.535669-2.68242-3.503748 3.556173 1.319366 2.713002 3.040659 8.038523 3.827036 11.821872l1.432954 6.889538-0.707739 8.37055-0.703371 8.370549-3.394528 7.48369c-6.03763 13.31162-15.736283 22.486021-28.287739 26.767409l-5.395421 1.83488-11.485477-1.332472-11.481109-1.336842-4.635257 1.389267-4.630888 1.389266-1.773718-1.467904c-0.974234-0.808221-1.769349-2.402819-1.769349-3.547435v-2.079531l-6.21238-5.928411-6.212381-5.928411-3.853248-8.322493-3.853249-8.326861 0.043688-12.136423c0.021844-6.675469 0.611627-14.084891 1.301891-16.470235 1.415479-4.866802 0.28397-5.68376-2.332919-1.686343-3.023184 4.609045-5.124559 17.322144-5.338628 32.315738l-0.131063 8.960332h-1.227623c-0.677158 0-3.949361-2.730477-7.273989-6.07258l-6.03763-6.063843-4.578464-11.271407c-4.818745-11.861191-5.609491-12.879112-6.736632-8.667625-1.27131 4.740107-0.760165 9.790397 2.097007 20.703566 1.550911 5.937148 3.412004 15.928509 4.137218 22.202052l1.314997 11.411208-1.406741 16.745467-1.402373 16.749836 0.646577 12.874743 0.646577 12.879113 2.437769 8.090948c6.03763 20.039514 8.706944 32.075455 8.256962 37.252439-0.065531 0.77764-1.437323 2.280494-3.049397 3.337735l-2.927071 1.917887-4.48235-2.022738-4.486719-2.022737-1.389267 0.856278-1.389266 0.860646 0.589783 4.373131 0.585414 4.377501 3.805192 5.592016c14.923693 21.913713 43.425501 45.317175 73.469481 60.310768l14.036835 7.007495 2.350394 2.988234 2.350394 2.988234-0.646576 6.6012c-0.358239 3.630442-1.223254 7.322046-1.922256 8.204536l-1.266941 1.603336-23.136967-0.825696c-12.721837-0.449983-27.108172-1.27131-31.966236-1.826143-4.853695-0.550464-19.288087-1.367423-32.075456-1.817405l-23.241817-0.816959-0.157276 1.616443c-0.087375 0.891228-0.218438 4.727001-0.292707 8.527824l-0.131063 6.907014-1.734398 0.218438c-0.95239 0.117957-6.155587-0.480564-11.559746-1.34121zM401.528289 466.103287l2.105744-2.324182v-7.234671l-2.149431-1.572754c-1.179566-0.860646-3.32026-1.568386-4.748845-1.568386h-2.603783l-1.79993 2.568832c-5.334259 7.614753 3.079978 16.889636 9.196245 10.13553z m171.635578 170.971526c-32.490488-1.577123-74.714579-7.920567-71.538488-10.747156 0.895596-0.795115 70.040003 2.721739 79.625068 4.045474 5.399791 0.747058 15.439207 1.402373 22.311271 1.459167l12.494661 0.100481-1.852355 1.354317c-1.878568 1.371791-12.385442 3.477535-20.812786 4.167799-2.54262 0.209701-11.642752 0.039319-20.227371-0.380082z m135.200098-103.382399l-1.48101-1.782455 1.223253-1.223254 1.223254-1.223253 2.429032 0.773271 2.424663 0.768902V535.479238h-2.166906c-1.197041 0-2.839696-0.803852-3.652286-1.782455z m-32.2371-2.944546a104.784772 104.784772 0 0 1-10.58988-2.822221l-5.47406-1.817405-5.207565-5.565804a50.502896 50.502896 0 0 1-12.341754-23.128229l-1.481011-6.273543 0.760165-13.324726 0.764533-13.320358-3.521222 3.372685c-3.468798 3.32026-10.388918 15.71007-10.388918 18.597823a3.058134 3.058134 0 0 1-1.336841 2.306706l-1.336842 0.830065 0.703371-5.976467 0.70774-5.972099 3.477535-7.287096 3.477535-7.287096 6.99002-7.623491c12.070891-13.171819 28.095513-23.604425 43.381813-28.235313l6.933226-2.097006 16.758574-0.021844 16.762942-0.017475 8.396762 3.931887 8.396762 3.936255 3.162984-1.585861c1.738768-0.873753 3.630442-1.79993 4.20275-2.066425l1.048503-0.480564-0.677159 4.163431-0.677158 4.163431 3.228516 2.638733c7.474953 6.10753 23.547631 14.748943 27.466411 14.766417 7.435634 0.030581 1.664499 5.696866-9.467109 9.296727-4.451769 1.441692-8.990914 3.451322-10.091842 4.473613l-1.996524 1.856724-2.33292 9.117608c-2.424663 9.480215-3.888199 12.254379-6.457031 12.254379h-1.520329l-0.729583-5.491534c-1.249466-9.458371-4.984758-20.463284-8.667626-25.548524l-3.547435-4.893015-8.768106-3.997417c-4.823114-2.197488-8.942857-3.997418-9.152558-3.997418-0.209701 0 1.738768 4.41245 4.325075 9.807872l4.705157 9.803503 1.231991 8.549669 1.231991 8.549668-1.450429 8.117161c-1.930993 10.790844-6.553144 20.218634-13.814027 28.156676l-5.963361 6.518194-5.19009 2.442138-5.19009 2.437769-7.811348-0.126694c-4.298862-0.0699-10.118054-0.576677-12.931538-1.131509z m-4.792532-43.202694c5.308047-2.743583 6.203643-7.645335 2.311075-12.599512l-2.39845-3.045027H663.413766l-2.359132 2.529513-2.354763 2.529514v3.027553c0 6.797795 6.540038 10.712206 12.634462 7.557959z m58.156968 41.966334c-3.582385-3.582385-0.615996-6.49635 4.469244-4.390607l3.451323 1.428586-0.35387 1.861093-0.349501 1.861093-2.892121 0.340763c-1.585861 0.183488-3.534329-0.305813-4.325075-1.100928z m-362.533031-21.297718c-1.974681-5.142034 1.37616-10.017573 6.889539-10.017573h3.03629l2.394082 2.394082 2.394082 2.394082-1.555279 1.869831c-3.818299 4.600307-11.891772 6.662363-13.158714 3.363947z m411.380166-111.591304c-15.945984-10.51998-39.633415-17.492526-68.336185-20.113784l-8.230749-0.755795-9.10887 1.336841a430.296908 430.296908 0 0 0-20.664247 3.739661c-6.360918 1.323735-13.787815 2.643101-16.505185 2.931439l-4.936702 0.524252-1.834881-1.515961-1.826142-1.520329 0.537357-5.609491 0.541727-5.605123 4.499826-4.648363c5.530854-5.723079 10.904432-8.571512 20.349696-10.799581l7.260883-1.712555 11.734497-0.017475 11.734496-0.013107 13.115026 2.267388c27.907656 4.823114 40.882881 10.594249 60.520469 26.929053l10.974332 9.130714 0.685895 2.730477c1.398004 5.565804-4.062949 6.976914-10.511243 2.721739z" fill="#A66A5D" p-id="31874"></path><path d="M495.142135 1021.394863c-73.893251-3.74403-136.829646-19.467206-197.660297-49.367018-26.02035-12.800475-62.311662-34.727294-68.165803-41.197432l-1.992156-2.201856 0.830065-1.34121c2.691158-4.360025 30.725508-19.209449 45.924433-24.334008 3.757136-1.262572 8.973438-3.652286 11.599064-5.308047 2.625626-1.66013 13.897034-7.492428 25.050485-12.966487s21.96177-11.153451 24.019457-12.616987c2.057687-1.467904 7.566697-4.434294 12.241273-6.596831 4.674576-2.158169 9.235564-4.814376 10.131161-5.89783 0.891228-1.087822 4.228962-3.643548 7.409421-5.679391 3.180459-2.040212 8.038523-5.596385 10.799582-7.903092 2.761058-2.306707 6.055105-4.194012 7.326415-4.194012h2.302338l-2.992603 3.556173c-3.888199 4.62652-4.565357 7.645335-3.875092 17.317775l0.567939 7.972992 4.609044 9.563221c20.817154 43.224538 62.080117 74.456822 110.319995 83.500161 5.308047 0.991709 12.158266 2.315444 15.225138 2.944546 3.066871 0.629102 15.290669 1.122772 27.164966 1.100928l21.581687-0.03495 10.98307-1.59023c50.738809-7.348259 74.483034-30.860939 77.099923-76.357233l0.59852-10.402024-1.288785-6.893908c-0.70774-3.792086-2.822221-10.166111-4.69642-14.167897l-3.403266-7.278359-6.00268-6.347812-6.002679-6.347812h1.791192c0.982972 0 6.225487 2.341657 11.65149 5.198828l9.860298 5.203196 3.831404 0.017475c2.105744 0.013106 8.772475 1.065978 14.810106 2.350394 16.352279 3.468798 57.672036 10.004466 72.827273 11.51169 27.348454 2.726108 33.303078 4.980389 47.514663 18.00804l9.698653 8.890432 4.119743 7.064289c2.263019 3.888199 5.775504 9.349152 7.80261 12.149529 2.022737 2.796008 3.682867 6.011417 3.682867 7.147295v2.062056l-4.914858 3.940624c-59.397697 47.658832-155.938614 87.550003-230.308061 95.169126l-7.881247 0.808221 0.821327-2.778533c0.449983-1.529067 1.114034-4.670207 1.472273-6.981283l0.650946-4.198381-1.310629-3.975574c-0.720846-2.184381-3.079978-5.68376-5.238147-7.776397l-3.923148-3.805193-5.045921-0.567939-5.05029-0.567939-4.145956 1.73003c-2.280494 0.95239-5.565804 3.595492-7.300202 5.867248l-3.154247 4.13285 0.043688 5.897829 0.048056 5.89783 2.43777 4.132849 2.437769 4.13285-0.926177 0.895596c-1.070347 1.039766-34.028292 2.123219-46.00744 1.515961z m189.56498-276.922758c-56.968665-3.521223-94.920106-6.963808-96.737511-8.781213l-0.982972-0.982971 9.829716-3.735292c32.263312-12.254379 90.31543-46.212771 116.637226-68.226967 12.525243-10.476293 28.200363-27.033903 39.886803-42.123609l9.545746-12.319911h6.78032v2.621258c0 1.441692-1.026659 6.330337-2.280495 10.860744-1.253835 4.530407-3.551804 16.221216-5.107083 25.9854l-2.822221 17.745914-0.327657 26.588289c-0.174751 14.622249 0.10485 31.91818 0.633471 38.432005l0.956759 11.848085-1.594599 0.179119c-5.574541 0.633471-9.877772 0.834434-32.223993 1.515961-13.669858 0.415032-25.63153 0.865015-26.588289 1.004815-0.95239 0.131063-7.972992-0.1398-15.605221-0.611627z m-377.679531-11.40247c-6.824007-1.197041-16.448391-3.17609-21.380724-4.390607a260.832605 260.832605 0 0 0-17.641063-3.595491c-10.769-1.712555-37.291758-7.221565-52.425152-10.878219l-11.389364-2.75669-3.058134-2.276125-3.058134-2.271757-0.327657-2.778533c-0.179119-1.524698-1.428585-5.893461-2.769796-9.70739l-2.446507-6.937595 0.786377-27.427092 0.786378-27.431461-1.192673-7.247777c-1.747505-10.616093-3.569279-31.206072-4.683313-52.905716-0.537358-10.48503-1.564017-21.931188-2.280494-25.426198-0.716477-3.49501-1.529067-13.38152-1.804299-21.966139-0.275232-8.58025-0.74269-22.368065-1.039766-30.629395-0.88249-24.543709 2.905227-70.358922 8.073474-97.672426 5.028446-26.583921 6.159955-31.725954 9.537008-43.346863a709.692386 709.692386 0 0 0 5.950255-21.96177c1.419848-5.723079 5.622598-18.204634 9.336046-27.741643 3.713448-9.537009 8.326862-22.084095 10.253486-27.885812 1.922256-5.801717 4.818745-13.342201 6.430819-16.758573 3.232884-6.854589 10.913169-27.138754 15.046018-39.738266 3.691604-11.249564 12.136423-31.053165 19.960877-46.811291l6.596831-13.294145 10.6292-15.028544 10.629199-15.028543 14.840687-14.54798c8.160849-8.003573 16.138209-15.233875 17.728439-16.072677 5.692498-3.00134 20.804048-15.762496 20.804047-17.571164 0-2.035843-3.931886-0.690264-12.450973 4.255175l-8.93412 5.185721-5.474059 0.747059-5.47406 0.751427-1.747505-1.454798c-0.961128-0.799484-1.751874-2.739214-1.751874-4.311969v-2.861539l7.80261-8.125899c15.823658-16.478973 35.37824-30.157569 63.34269-44.299253l20.860842-10.559299 18.501709-5.993943 18.50171-5.998311 14.836318-2.276125 14.836318-2.280494 25.557262 0.03495c29.742536 0.043688 37.304864 0.84754 54.504682 5.801717l12.665043 3.647916 13.294145 6.789058 13.289776 6.789057 10.983069 8.768106c6.03763 4.823114 13.936353 11.856822 17.540582 15.631433 3.612967 3.774611 7.317677 6.867695 8.239487 6.867695 0.921809 0 2.324182 0.77764 3.114927 1.734399 1.891674 2.271757 5.107084 2.201856 7.06429-0.152907l1.564017-1.887305-4.997865-4.3076-4.993495-4.303232 3.110559-2.446507c4.093531-3.219778 9.14382-4.067318 20.358433-3.420741l9.231196 0.537358 6.343443 6.256068 6.343444 6.256068-0.650946 2.599414-0.646577 2.603782 6.090055 2.817852c3.350841 1.546542 13.372782 6.085686 22.271952 10.078736l16.181897 7.265252 8.671994 6.050736c4.76632 3.328997 11.520427 8.025417 15.0067 10.436974 27.016428 18.680829 53.962956 57.449229 61.302477 88.183474l1.515961 6.360919-0.397558 7.514272a411.275316 411.275316 0 0 0-0.445613 16.181896l-0.043688 8.667625 5.570172 11.559746c20.013302 41.52072 28.680927 78.157164 30.201257 127.725145l0.729583 23.696169-1.73003 12.796106-1.73003 12.791737-4.674576 14.373229c-2.57757 7.90746-6.509456 18.012408-8.750632 22.459808-2.241175 4.451769-4.080424 9.130714-4.080424 10.397656-0.021844 7.820085-10.013204 36.413637-12.726206 36.413636h-1.288785l0.668421-4.910489c2.158169-15.862977 4.054212-35.788904 4.705157-49.415074l0.74269-15.60522-1.856724-8.855482c-15.758127-75.160193-67.672133-142.779901-153.806658-200.342718-12.079629-8.073473-24.303427-16.627511-27.164966-19.008486-2.86154-2.385344-6.452662-5.002233-7.986098-5.814823l-2.782902-1.485379-22.647665 0.70337c-35.819485 1.109666-43.272594 2.708633-77.545537 16.623142-14.26401 5.788611-31.905074 15.648908-42.551749 23.783544-3.617335 2.761058-11.520427 8.318124-17.562425 12.341755-19.021593 12.669412-49.454393 44.679336-58.095806 61.088408l-5.268728 10.000097c-1.004815 1.909149-2.044581 6.422081-2.306707 10.035048l-0.480563 6.570619 3.892567 0.594152c2.140694 0.332026 12.796106 0.899965 23.678694 1.27131l19.790494 0.677158 12.8529 2.158169 12.857269 2.162537 7.356996 3.442585c7.243408 3.39016 20.808416 11.08792 25.893656 14.696518l2.599414 1.847986v9.056445l-2.254282 1.205779-2.254281 1.210147-7.654072-2.883383c-8.938488-3.363947-34.150618-10.458818-43.320651-12.193217-3.49501-0.659683-15.198925-1.240729-26.007244-1.288785l-19.650694-0.087375-10.978701 2.009631c-6.041999 1.100928-12.328648 2.686789-13.971303 3.521222-6.225487 3.154247-13.862084 16.015884-17.112443 28.816359-1.293154 5.08524-3.669761 12.485924-5.286203 16.448391-1.612073 3.958099-2.93144 7.536116-2.93144 7.951148 0 2.214963 24.124307-4.001787 24.355852-6.277912 0.930546-9.187508 1.463535-9.654965 5.692498-5.024077l3.398897 3.726555 2.638733-0.550464c1.450429-0.305813 6.028892-0.869384 10.179217-1.253835l7.549222-0.699002 10.371442 1.227622c29.690111 3.521223 44.334203 10.31028 62.792226 29.104697l7.230302 7.361365 5.15514 10.402024 5.159509 10.406392 0.554832 7.514272 0.554833 7.514272-2.11885-6.360918c-4.692051-14.08926-11.813134-22.962216-26.085881-32.503595l-7.038077-4.705157-0.358238 1.747505c-0.192226 0.965497 0.913071 4.268281 2.459613 7.339521 9.419052 18.698304 6.334706 40.965887-7.863773 56.754596l-5.373578 5.972098-7.147296 3.516854-7.147295 3.516854-18.453654-0.463089-18.449284-0.463088-0.489302-1.572755c-0.266495-0.865015-3.468798-4.705157-7.107977-8.532193-7.453109-7.83756-10.585512-13.337832-12.704361-22.337484l-1.454798-6.181799 0.620364-8.846744c0.786377-11.280145 2.040212-15.268825 7.745816-24.731566 5.679391-9.410315 5.692498-8.964701-0.297076-8.964701h-4.936702l-4.294493 2.918334-4.294494 2.918333-4.578463 9.506428c-2.516407 5.229409-5.47406 12.88785-6.570619 17.020699-1.096559 4.132849-2.415926 7.994836-2.927071 8.584619l-0.934915 1.070347-3.101822-6.85022-3.101821-6.85022-1.258204-9.825347-1.258204-9.825347-4.849326-0.349501-4.840589-0.35387-1.673236 2.664945c-7.977361 12.713099-9.060814 89.210133-1.821774 128.655691l2.337288 12.713099-0.358239 7.514272-0.35387 7.514272-2.603782 0.371345c-1.432954 0.200963-3.180459 1.44606-3.888199 2.765427l-1.280047 2.39845 0.602889 4.499826 0.602889 4.508563 4.914858 8.33123c6.898276 11.695178 17.453207 24.054407 33.818592 39.585359l14.067416 13.350938 11.22772 7.457478c6.173062 4.097899 18.00804 10.891325 26.299951 15.094075l15.080968 7.640966 0.733952 2.927071c0.406295 1.603336 0.270863 5.841036-0.297075 9.414683L432.721255 722.156466l-20.227371-0.362608c-11.12287-0.200963-24.648559-0.873753-30.052719-1.489748-5.404159-0.620364-20.799679-1.441692-34.216149-1.83488l-24.386433-0.699002-1.039765 1.616442c-0.572308 0.886859-1.044134 4.687682-1.044135 8.444818v6.828376l-1.153353 0.297076c-0.637839 0.161644-6.741001-0.685896-13.569377-1.887305z m96.261317-267.237211l2.319813-3.757136-0.694634-2.883384c-0.996078-4.172168-3.896936-6.937595-7.260883-6.937595h-2.927071l-2.673683 2.512039-2.678051 2.512038v8.715682l2.568832 1.79993c1.415479 0.98734 4.02363 1.795561 5.797348 1.795561h3.232884z m277.953786 64.264498c-1.27131-0.266495-5.937148-1.332473-10.362705-2.359132l-8.05163-1.878568-5.626966-5.264359c-12.022835-11.245195-18.654617-34.382162-13.687334-47.750575 0.546095-1.472273 1.349948-4.62652 1.786824-7.007496l0.786378-4.338181h-1.743137c-0.961128 0-3.661023 1.681974-5.998311 3.735292l-4.255175 3.735292 2.066425-3.98868c9.99136-19.323037 39.61594-36.627706 66.160542-38.641706l9.515165-0.720846 7.820085 1.23636c4.303231 0.681527 11.205876 2.761058 15.334357 4.622151 4.137218 1.861093 8.558406 3.267834 9.829716 3.123665l2.311075-0.262125 0.345132 2.311075 0.340764 2.311076 11.218982 7.273989c6.164324 3.997418 13.425208 7.876879 16.125103 8.619569 7.667178 2.101375 6.343443 3.809561-6.068211 7.83756-10.367074 3.363947-11.520427 4.560988-14.355754 14.8669-3.245991 11.808765-4.958546 12.551455-6.422081 2.78727-0.454351-3.005709-1.861093-8.243855-3.132403-11.642752l-2.315444-6.177431-7.112346-8.003573-7.121083-7.999204-6.933226-2.271757c-6.723526-2.201856-9.873404-2.809114-13.119395-2.533882l-1.559648 0.131063 5.605123 6.14248c6.99002 7.645335 11.424314 16.588192 13.145606 26.461595l1.323736 7.610385-1.358686 9.082657-1.363054 9.078289-4.036736 7.723972c-4.823114 9.218089-11.489846 16.125103-19.340513 20.039515l-5.758029 2.865908-5.841035-0.131063c-3.211041-0.074269-6.880801-0.35387-8.152111-0.624733z m-6.649257-43.853639l2.603782-2.909596v-3.245991c0-4.281387-3.81393-8.977807-8.038523-9.908354l-3.385791-0.742689-2.664945 1.424216c-7.557959 4.019262-7.833191 14.657199-0.480564 17.911927l3.586754 1.585861 2.892121-0.602889c1.585861-0.327657 4.05858-1.909149 5.487166-3.512485z m-303.690167 18.628404c-1.8479" fill="#47332F" p-id="31875"></path></svg>