<?xml version="1.0" standalone="no"?><!DOCTYPE svg PUBLIC "-//W3C//DTD SVG 1.1//EN" "http://www.w3.org/Graphics/SVG/1.1/DTD/svg11.dtd"><svg t="1747040139637" class="icon" viewBox="0 0 1024 1024" version="1.1" xmlns="http://www.w3.org/2000/svg" p-id="5402" xmlns:xlink="http://www.w3.org/1999/xlink" width="200" height="200"><path d="M7.42029 6.752464m133.565217 0l742.028986 0q133.565217 0 133.565217 133.565217l0 742.028986q0 133.565217-133.565217 133.565217l-742.028986 0q-133.565217 0-133.565217-133.565217l0-742.028986q0-133.565217 133.565217-133.565217Z" fill="#5398F7" p-id="5403"></path><path d="M845.913043 155.826087H178.086957a59.362319 59.362319 0 0 0-59.362319 59.362319v445.217391a59.362319 59.362319 0 0 0 59.362319 59.362319h667.826086a59.362319 59.362319 0 0 0 59.362319-59.362319V215.188406a59.362319 59.362319 0 0 0-59.362319-59.362319zM667.826087 605.94087a32.649275 32.649275 0 0 1-32.649275 32.723478H388.60058A32.649275 32.649275 0 0 1 356.173913 605.94087V456.570435a32.649275 32.649275 0 0 1 32.723478-32.723478h1.484058v-68.34087a122.657391 122.657391 0 0 1 245.24058 0 20.405797 20.405797 0 1 1-40.811594 0 81.623188 81.623188 0 0 0-163.246377 0v68.34087h203.390145A32.649275 32.649275 0 0 1 667.826087 456.570435zM653.57913 754.049855h-281.971014l-51.942029 79.026087a22.26087 22.26087 0 0 0 18.69913 34.430145h348.308406a22.26087 22.26087 0 0 0 18.624928-34.430145z" fill="#FFFFFF" p-id="5404"></path><path d="M526.098551 519.42029v-32.204058a12.243478 12.243478 0 1 0-24.412754 0V519.42029a36.656232 36.656232 0 1 0 24.412754 0z" fill="#FFFFFF" p-id="5405"></path><path d="M848.064928 234.852174a18.624928 18.624928 0 0 0-24.932174 8.384927l-27.974493 56.394203-33.984928 8.162319a54.910145 54.910145 0 1 0 9.794783 35.84l41.331014-9.72058a21.073623 21.073623 0 0 0 3.635942-1.261449l0.742029-0.445217a27.455072 27.455072 0 0 0 2.448696-1.558261l0.964638-0.890435a20.99942 20.99942 0 0 0 1.855072-1.780869l0.890435-1.187247 1.335652-2.077681 0.371015-0.593623 31.833043-64.408116a18.476522 18.476522 0 0 0-8.310724-24.857971z m-127.628986 121.766956a17.808696 17.808696 0 1 1 13.133913-21.51884 17.734493 17.734493 0 0 1-13.133913 21.51884zM310.687536 576.408116l14.024348-58.397681a1.261449 1.261449 0 0 1 0-0.519421 18.402319 18.402319 0 0 0 0-2.003478 13.282319 13.282319 0 0 0 0-1.706666 63312604866434.59 63312604866434.59 0 0 1 0-3.56174 11.501449 11.501449 0 0 0-0.51942-1.706666 14.84058 14.84058 0 0 0-0.519421-1.706667 17.808696 17.808696 0 0 0-0.816231-1.706667l-0.816232-1.409855c0-0.51942-0.742029-1.038841-1.113044-1.558261a9.052754 9.052754 0 0 0-1.113043-1.261449 9.572174 9.572174 0 0 0-1.26145-1.187246l-1.55826-1.261449h-0.445218l-53.351884-34.430145a54.835942 54.835942 0 1 0-19.144348 31.833043l41.331015 26.638841L274.550725 567.80058a18.402319 18.402319 0 0 0 7.93971 19.886377 18.773333 18.773333 0 0 0 5.713623 2.448695 18.550725 18.550725 0 0 0 22.483478-13.727536zM199.902609 467.923478a17.808696 17.808696 0 1 1 24.635362-5.342608 17.957101 17.957101 0 0 1-24.635362 5.342608zM838.492754 571.362319a54.984348 54.984348 0 0 0-63.443479 11.649855l-31.981449-15.36 28.271304-9.572174a24.190145 24.190145 0 0 0 3.932754-1.929275 5.12 5.12 0 0 0 0.964638-0.816232 6.455652 6.455652 0 0 0 1.558261-1.26145 9.572174 9.572174 0 0 0 1.187246-1.261449 10.833623 10.833623 0 0 0 1.187246-1.409855 17.734493 17.734493 0 0 0 0.964638-1.558261 14.84058 14.84058 0 0 0 0.816232-1.484058 95024540834406.77 95024540834406.77 0 0 0 1.187246-3.413333 13.727536 13.727536 0 0 1 0-1.706667 14.395362 14.395362 0 0 0 0-1.780869 16.769855 16.769855 0 0 0 0-1.929276v-1.632463a16.992464 16.992464 0 0 0-0.51942-2.077682v-1.113043a14.024348 14.024348 0 0 0-0.816232-1.855073l-0.816232-1.632463-33.762319-51.422609a18.550725 18.550725 0 1 0-31.016811 20.331594l20.628406 31.387826-46.747826 15.285797a18.402319 18.402319 0 0 0-11.056232 10.24 3.042319 3.042319 0 0 1 0 0.667827 18.476522 18.476522 0 0 0 8.755942 24.709565l72.71884 34.801159A54.910145 54.910145 0 1 0 838.492754 571.362319z m-31.387826 65.595362a17.808696 17.808696 0 1 1 23.81913-8.384927 17.882899 17.882899 0 0 1-24.115942 8.681739z" fill="#5398F7" p-id="5406"></path></svg>