<?xml version="1.0" standalone="no"?><!DOCTYPE svg PUBLIC "-//W3C//DTD SVG 1.1//EN" "http://www.w3.org/Graphics/SVG/1.1/DTD/svg11.dtd"><svg t="1747045132117" class="icon" viewBox="0 0 1024 1024" version="1.1" xmlns="http://www.w3.org/2000/svg" p-id="5192" xmlns:xlink="http://www.w3.org/1999/xlink" width="200" height="200"><path d="M936.4 541.6h-146l-28-36v36h-157.6c-32 0-58 26-58 58v331.6c0 32 26 58 58 58h331.6c32 0 58-26 58-58V600c0-32.4-26-58.4-58-58.4z m-24.8 166.8h-53.2c-4.8 22.4-19.6 64.4-60.4 104.8 21.6 15.2 48.4 29.2 82 40.4l9.2 3.2-10.4 32.4-9.2-3.2c-41.2-13.6-73.2-30.8-98.4-49.6-25.2 18.8-57.2 36-98.4 49.6l-9.2 3.2-10.8-32.4 9.2-3.2c31.2-10.4 58.8-24 82.4-40.4-41.2-40.4-55.6-82.4-60.8-104.8H632v-34h122.8V628h34v46.4h122.8v34z" fill="#71CDE1" p-id="5193"></path><path d="M334.8 190l56.8 150.4H278z" fill="#F68F6F" p-id="5194"></path><path d="M576.4 34.8H93.2c-35.2 0-63.6 28.4-63.6 63.6v483.2c0 35.2 28.4 63.6 63.6 63.6h408v-39.6c0-60 48.8-109.2 109.2-109.2h29.6V98.4c0-35.2-28.4-63.6-63.6-63.6z m-115.2 489.6l-56.4-149.6H265.2l-56.8 149.6H172l149.2-394.8h27.2l149.2 394.8h-36.4z" fill="#F68F6F" p-id="5195"></path><path d="M718.8 708.4h104.4c-3.2 11.6-9.2 27.2-20.4 44.8-8.8 13.6-19.2 26.4-31.6 38-32.8-31.2-46.8-63.2-52.4-82.8z" fill="#71CDE1" p-id="5196"></path><path d="M507.6 531.2h-51.2L400 381.2H269.6l-56.4 149.6H162L316.4 122.4h36.4l154.8 408.8z m-41.6-13.6h22L343.6 136h-17.6l-144 381.2H204l56.4-149.6h149.2l56.4 150z m-64.4-170.4H268l66.8-176.8 66.8 176.8z m-114-13.6h94L334.8 209.2 287.6 333.6zM882.8 897.6l-15.6-5.2c-36.8-12-69.2-28-96.4-47.6-27.2 19.6-60 35.6-96.4 47.6l-15.6 5.2-14.8-45.2 15.6-5.2c27.6-9.2 52.4-20.8 73.6-34.8-35.2-36.8-49.6-74.4-55.2-96.8h-52.4V668H748v-46.4h47.6V668h122.8v47.6H864c-5.6 22.4-20 60-55.2 96.8 21.2 14 46 25.6 73.6 34.8l15.6 5.2-15.2 45.2z m-222-36.8l6.4 19.6 2.8-0.8c37.2-12 69.6-28.4 96.8-48.8l4-3.2 4 3.2c27.2 20 59.6 36.4 96.8 48.8l2.8 0.8 6.4-19.6-2.8-0.8c-32-10.4-60-24.4-84-41.2l-6.8-4.8 6-5.6c40-39.2 54-80.4 58.8-101.2l1.2-5.2h51.6v-20.4h-122.8v-46.4h-20.4v46.4h-122.8v20.4h49.6l1.2 5.2c4.8 20.8 18.4 62 58.8 101.2l6 5.6-6.8 4.8c-24 16.8-52.4 30.8-84 41.2l-2.8 0.8z m110-60.4l-4.8-4.4c-32.8-31.6-47.6-64-54-85.6l-2.8-8.8H832l-2.4 8.8c-4.4 15.6-12 31.6-21.2 46.4-8.8 14-20 27.2-32.8 39.2l-4.8 4.4zM728 715.2c6.8 18.4 19.2 42.4 42.8 66.4 10-10 18.8-20.8 25.6-32 8-12.8 13.6-24.8 16.8-34H728zM445.2 955.6h-13.6v-13.6h13.6v13.6z m-27.2 0h-13.6v-13.6h13.6v13.6z m-27.2 0h-13.6v-13.6h13.6v13.6z m-27.6 0h-13.6v-13.6h13.6v13.6z m-27.2 0h-13.6v-13.6H336v13.6z m-27.2 0h-13.6v-13.6h13.6v13.6z m-27.6 0h-13.6v-13.6h13.6v13.6z m-27.2 0h-13.6v-13.6h13.6v13.6z m-27.2 0h-13.6v-13.6h13.6v13.6z m-27.6 0h-4.8c-3.2 0-6.4 0-9.2-0.4l1.2-13.6c2.8 0.4 5.2 0.4 8 0.4h4.8v13.6z m-28.8-2.8c-4.8-1.2-9.6-2.8-14-4.8l5.6-12.4c4 1.6 8 3.2 12 4l-3.6 13.2z m-26.8-12c-4-2.8-8-5.6-11.6-8.8l9.2-10c3.2 2.8 6.4 5.2 10 7.6l-7.6 11.2z m-21.6-19.6c-3.2-4-6-8-8.4-12l12-6.8c2 3.6 4.4 7.2 7.2 10.4l-10.8 8.4z m-14.8-25.6c-1.6-4.4-3.2-9.2-4-14l13.2-2.8c0.8 4 2 8 3.6 12l-12.8 4.8z m-6-28.8v-14h13.6v13.2l-13.6 0.8z m13.6-27.6h-13.6v-13.6h13.6v13.6z m0-27.2h-13.6v-13.6h13.6v13.6z m0-27.2h-13.6v-13.6h13.6v13.6z m0-27.6h-13.6v-13.6h13.6v13.6z m0-27.2h-13.6v-13.6h13.6v13.6zM932 469.6h-13.6V456h13.6v13.6z m0-27.2h-13.6v-13.6h13.6v13.6z m0-27.6h-13.6v-13.6h13.6v13.6z m0-27.2h-13.6v-13.6h13.6v13.6z m0-27.2h-13.6v-13.6h13.6v13.6z m0-27.6h-13.6v-13.6h13.6v13.6z m0-27.2h-13.6V292h13.6v13.6z m0-27.2h-13.6v-13.6h13.6v13.6z m0-27.6h-13.6v-13.6h13.6v13.6z m0-27.2h-13.6V216v-5.6l13.6-0.8c0 2 0.4 4.4 0.4 6.4v7.6z m-15.6-25.6c-0.8-4-2.4-8-3.6-12l12.8-5.2c2 4.4 3.2 9.2 4.4 14l-13.6 3.2z m-9.6-23.2c-2-3.6-4.8-7.2-7.2-10.4l10.4-8.8c3.2 3.6 6 7.6 8.4 12l-11.6 7.2z m-16-19.2c-3.2-2.8-6.4-5.2-10-7.6l7.2-11.6c4 2.4 8 5.6 12 8.8l-9.2 10.4z m-21.2-13.2c-4-1.6-8-2.8-12-4l3.2-13.2c4.8 1.2 9.6 2.8 14 4.8l-5.2 12.4z m-24.4-6c-2 0-4.4-0.4-6.4-0.4H832v-13.6h6.4c2.4 0 5.2 0 7.6 0.4l-0.8 13.6z m-26.8-0.4h-13.6v-13.6h13.6V136z m-27.6 0h-13.6v-13.6h13.6V136z m-27.2 0h-13.6v-13.6h13.6V136z" fill="#4A555F" p-id="5197"></path><path d="M754 186.8l-56-57.6 56-53.6 9.6 10-46.4 44 46.4 48zM429.6 1004.4l-9.6-9.6 46.4-48-46.4-43.6 9.6-10 56 53.2zM272.4 795.6v-120.8H93.2C41.6 674.8 0 632.8 0 581.6V98.4C0 46.8 41.6 5.2 93.2 5.2h483.2c51.6 0 93.2 42 93.2 93.2v427.6h-59.2c-44 0-79.6 35.6-79.6 79.6v69.2h-160l-98.4 120.8zM93.2 18.8c-44 0-79.6 35.6-79.6 79.6v483.2c0 44 35.6 79.6 79.6 79.6h192.8v96l78.4-96h152.8v-55.6c0-51.6 41.6-93.2 93.2-93.2H656V98.4c0-44-35.6-79.6-79.6-79.6H93.2z" fill="#4A555F" p-id="5198"></path><path d="M302.4 641.6V712l62.4-77.2z" fill="#F68F6F" p-id="5199"></path><path d="M936.4 1018.8h-331.6c-48.4 0-87.6-39.2-87.6-87.6V600c0-48.4 39.2-87.6 87.6-87.6h128v-90.8l74 90.8h129.6c48.4 0 87.6 39.2 87.6 87.6v331.6c0 48-39.2 87.2-87.6 87.2z m-331.6-492.8c-40.8 0-74 33.2-74 74v331.6c0 40.8 33.2 74 74 74h331.6c40.8 0 74-33.2 74-74V600c0-40.8-33.2-74-74-74h-136L746.4 460v66h-141.6z" fill="#4A555F" p-id="5200"></path></svg>